<svg xmlns="http://www.w3.org/2000/svg" xmlns:v="https://svgstorm.com"
viewBox = "0 0 907 870"
width="907"
height="870">
<g fill="None" fill-opacity="0.0" stroke="#000002" stroke-opacity="0.00" stroke-width="0.3"><path d="
M 0.00 870.00 
L 907.00 870.00
L 907.00 0.00
L 0.00 0.00
L 0.00 870.00
M 632.00 5.00 
C 659.61 4.45 686.21 23.84 707.00 41.00
C 718.46 48.25 730.56 61.24 741.00 72.00
C 767.02 98.80 780.44 126.05 797.31 159.69 C 814.17 193.34 825.57 231.57 831.78 270.22 C 837.99 308.87 838.05 357.89 818.00 393.00
C 820.79 392.64 823.16 392.18 826.00 392.00
C 821.56 389.22 828.83 380.62 833.00 384.00
C 833.00 386.67 833.00 389.33 833.00 392.00
C 834.43 392.25 836.00 393.27 837.00 394.00
C 838.63 395.19 838.86 394.24 839.00 397.00
C 839.44 405.37 829.79 414.06 828.69 422.69 C 827.60 431.33 818.87 439.73 819.00 449.00
C 862.58 471.54 892.67 520.92 905.00 565.00
C 906.04 572.96 902.72 581.52 894.00 579.00
C 862.64 577.19 828.22 580.71 796.00 580.00
C 784.77 596.14 783.08 622.81 765.00 634.00
C 721.47 671.94 683.82 705.27 630.31 728.31 C 576.79 751.34 515.10 782.00 454.00 782.00
C 451.18 782.27 447.76 782.27 445.00 782.00
C 441.40 782.00 437.92 781.63 435.00 781.00
C 431.80 780.31 427.75 779.01 424.00 779.00
C 428.23 783.78 416.17 778.96 410.92 777.08 C 405.67 775.20 393.16 776.60 388.00 774.00
C 380.77 775.09 376.44 785.34 370.25 789.25 C 364.06 793.16 358.34 799.74 351.75 803.75 C 345.17 807.77 339.63 814.80 332.77 818.77 C 325.91 822.74 322.85 830.64 315.75 834.75 C 308.65 838.86 308.42 852.34 303.00 856.00
C 302.08 856.62 301.17 857.10 300.00 857.00
C 302.42 859.42 304.81 862.44 307.00 865.00
C 287.63 856.81 271.47 842.33 255.00 829.00
C 244.59 821.57 234.30 812.21 225.25 802.75 C 216.20 793.29 202.40 782.32 208.00 768.00
C 198.48 764.40 185.07 771.74 175.00 769.00 C 164.93 766.26 152.12 769.47 142.00 768.00 C 131.88 766.53 121.69 765.51 111.98 764.02 C 102.26 762.53 93.46 761.83 86.00 755.00
C 83.76 752.95 84.29 752.38 83.00 750.00
C 82.04 748.23 81.04 748.68 81.00 746.00
C 79.69 748.21 76.67 751.47 74.00 752.00
C 71.48 739.01 81.45 727.58 85.93 715.93 C 90.40 704.27 97.71 693.80 102.00 682.00
C 105.91 666.00 111.77 647.95 119.00 632.00
C 103.54 634.36 85.05 637.48 69.00 636.00 C 52.95 634.52 34.46 636.75 20.00 631.00
C 17.70 630.09 8.46 623.62 15.00 621.00
C 11.69 620.04 7.06 618.66 4.00 617.00
C 26.75 606.19 47.83 590.06 69.00 576.00
C 61.09 569.10 53.68 560.52 45.75 553.25 C 37.82 545.98 31.28 536.48 23.75 529.25 C 16.23 522.01 11.70 507.58 1.00 508.00
C 17.43 484.34 41.47 463.18 66.00 450.00
C 59.88 449.02 58.37 435.48 55.23 429.77 C 52.09 424.06 49.64 414.05 47.07 406.93 C 44.51 399.80 42.07 389.33 40.67 381.33 C 39.27 373.33 38.41 362.99 39.00 354.00 C 39.59 345.01 42.43 336.03 45.00 328.00
C 49.42 277.72 64.16 228.59 79.32 181.32 C 94.49 134.06 116.28 89.90 118.00 39.00
C 120.30 47.49 119.49 39.51 121.00 35.00
C 122.60 35.53 121.72 37.75 122.00 39.00
C 128.49 46.48 131.47 53.21 137.77 62.23 C 144.07 71.25 141.39 83.47 143.00 93.00
C 178.81 142.14 226.54 184.36 274.00 222.00
C 297.39 193.33 331.69 171.80 368.00 171.00
C 369.25 170.91 369.19 170.53 371.00 171.00
C 386.66 175.07 398.11 196.26 411.00 206.00
C 411.89 206.67 413.23 207.29 414.00 208.00
C 414.35 207.98 416.48 205.42 417.00 205.00
C 417.24 204.80 417.00 204.00 417.00 204.00
C 415.16 201.20 420.63 194.68 422.00 192.00
C 429.79 176.76 426.12 157.98 430.00 141.00 C 433.88 124.02 434.00 104.22 434.00 86.00
C 434.00 76.34 437.29 70.68 447.00 75.00
C 447.90 75.40 449.03 75.49 450.00 76.00
C 454.05 78.11 455.19 81.00 458.00 84.00
C 458.89 84.68 460.22 85.29 461.00 86.00
C 478.18 95.43 493.87 117.48 507.75 133.25 C 521.63 149.02 537.20 172.45 547.00 191.00
C 547.28 187.06 552.11 184.77 554.00 183.00
C 557.12 178.19 558.08 172.00 560.93 166.93 C 563.77 161.85 565.60 156.58 568.31 151.31 C 571.01 146.03 573.11 140.15 575.77 134.77 C 578.44 129.39 579.81 123.86 582.32 118.32 C 584.83 112.78 586.59 106.65 588.93 100.93 C 591.27 95.20 591.88 88.85 593.99 82.99 C 596.10 77.13 597.62 71.14 598.98 64.98 C 600.33 58.81 601.61 51.06 603.00 45.00 C 604.38 38.94 604.50 30.52 606.00 25.00 C 607.50 19.48 602.56 4.98 607.00 2.00
C 609.45 0.35 616.68 3.63 620.00 3.00 C 623.32 2.37 628.33 5.07 632.00 5.00 Z"/>
</g>
<g fill="None" fill-opacity="0.0" stroke="#000002" stroke-opacity="0.99" stroke-width="0.3"><path d="
M 554.00 183.00 
C 575.03 163.34 580.35 137.42 592.31 111.31 C 604.26 85.19 608.00 46.15 608.00 16.00
C 607.77 13.58 607.00 10.09 607.00 7.00
C 607.00 5.33 607.00 3.67 607.00 2.00
C 602.56 4.98 607.50 19.48 606.00 25.00 C 604.50 30.52 604.38 38.94 603.00 45.00 C 601.61 51.06 600.33 58.81 598.98 64.98 C 597.62 71.14 596.10 77.13 593.99 82.99 C 591.88 88.85 591.27 95.20 588.93 100.93 C 586.59 106.65 584.83 112.78 582.32 118.32 C 579.81 123.86 578.44 129.39 575.77 134.77 C 573.11 140.15 571.01 146.03 568.31 151.31 C 565.60 156.58 563.77 161.85 560.93 166.93 C 558.08 172.00 557.12 178.19 554.00 183.00 Z"/>
</g>
<g fill="None" fill-opacity="0.0" stroke="#F7FDFD" stroke-opacity="1.00" stroke-width="0.3"><path d="
M 607.00 7.00 
C 607.26 9.45 608.00 12.89 608.00 16.00
C 608.00 46.15 604.26 85.19 592.31 111.31 C 580.35 137.42 575.03 163.34 554.00 183.00
C 552.11 184.77 547.28 187.06 547.00 191.00
C 549.11 194.99 551.16 199.75 553.00 204.00
C 556.74 210.43 561.49 218.10 563.98 225.02 C 566.46 231.95 568.40 243.73 558.92 245.92 C 549.45 248.12 545.10 238.63 539.75 233.25 C 534.39 227.88 530.15 220.26 526.23 213.77 C 522.31 207.28 518.49 200.12 514.23 193.77 C 509.97 187.42 504.57 181.85 500.70 175.30 C 496.82 168.75 492.21 162.22 488.25 155.75 C 484.29 149.29 479.92 141.37 475.75 135.25 C 471.57 129.14 466.97 121.71 462.75 116.25 C 458.52 110.79 453.87 101.28 450.25 96.75 C 446.62 92.22 438.41 75.31 447.00 75.00
C 437.29 70.68 434.00 76.34 434.00 86.00
C 437.42 105.06 440.55 131.86 435.07 151.07 C 429.59 170.29 431.59 190.53 417.00 205.00
C 416.48 205.42 414.35 207.98 414.00 208.00
C 420.79 214.23 427.72 220.96 434.25 226.75 C 440.77 232.55 448.66 239.81 453.75 246.25 C 458.85 252.68 465.71 269.16 454.92 271.92 C 444.14 274.69 437.77 262.78 430.25 257.75 C 422.73 252.73 416.88 244.97 410.75 238.25 C 404.62 231.53 398.78 224.03 392.25 217.75 C 385.72 211.47 378.60 205.30 372.25 198.75 C 365.90 192.20 360.10 183.85 354.00 177.00
C 325.31 186.82 298.55 202.09 275.00 222.00
C 293.94 241.24 318.07 257.63 339.00 275.00
C 280.72 247.83 230.64 203.77 185.00 157.00
C 182.01 154.01 178.73 151.19 176.00 148.00
C 164.32 134.33 151.64 120.94 142.00 106.00
C 142.41 113.65 135.42 123.19 134.67 131.67 C 133.93 140.15 129.25 148.76 127.22 157.22 C 125.20 165.69 122.70 175.07 120.67 183.67 C 118.64 192.28 116.01 200.59 113.02 209.02 C 110.04 217.46 108.46 226.29 106.01 235.01 C 103.55 243.72 99.47 252.64 99.01 262.01 C 98.55 271.37 94.75 279.29 92.02 288.02 C 89.29 296.76 87.91 305.38 85.22 314.22 C 82.54 323.07 81.81 332.01 79.02 341.02 C 76.24 350.04 77.78 361.01 78.93 370.07 C 80.08 379.13 83.36 388.61 85.98 397.02 C 88.59 405.44 91.79 413.36 94.78 421.22 C 97.76 429.09 102.27 434.96 108.25 440.75 C 114.23 446.54 119.10 451.18 124.92 457.08 C 130.74 462.99 135.48 468.39 138.92 476.08 C 142.37 483.76 137.13 496.87 127.00 496.00
C 126.44 498.52 128.19 502.30 126.00 504.00
C 126.55 523.62 115.32 543.46 104.23 558.23 C 93.14 573.00 80.05 587.15 66.25 597.25 C 52.46 607.36 32.81 626.19 15.00 621.00
C 8.46 623.62 17.70 630.09 20.00 631.00
C 33.76 632.81 48.89 626.11 63.00 627.00 C 77.11 627.89 91.69 622.71 105.22 621.22 C 118.75 619.73 130.16 615.15 143.22 612.22 C 156.28 609.29 168.63 606.26 181.67 602.67 C 194.71 599.09 208.14 597.63 222.00 596.00 C 235.86 594.37 253.15 592.26 267.00 595.00
C 226.17 608.50 183.51 618.90 141.00 628.00
C 137.80 632.43 142.63 641.50 140.00 647.00 C 137.37 652.50 138.09 656.39 136.01 663.01 C 133.92 669.63 133.17 668.81 130.23 677.23 C 127.29 685.64 122.42 697.58 118.69 705.70 C 114.97 713.81 115.07 713.33 112.23 719.23 C 109.38 725.13 108.50 728.48 106.08 733.08 C 103.65 737.67 100.09 742.02 98.70 745.70 C 97.30 749.37 89.15 754.28 91.00 756.00
C 112.53 761.35 134.00 757.22 156.00 758.00 C 178.00 758.78 202.75 756.00 225.00 756.00
C 228.67 756.00 232.33 756.00 236.00 756.00
C 249.45 756.00 263.27 758.56 276.00 760.00
C 257.57 761.89 239.74 766.24 221.00 767.00
C 225.91 768.52 229.94 776.40 235.08 778.92 C 240.23 781.43 244.28 788.33 248.75 792.25 C 253.22 796.17 256.79 802.40 261.30 806.70 C 265.82 810.99 269.93 816.33 273.77 821.23 C 277.61 826.13 282.69 830.58 286.30 835.70 C 289.92 840.81 294.95 845.51 298.00 851.00
C 296.24 851.05 294.93 849.47 293.00 850.00
C 295.26 851.94 297.91 854.91 300.00 857.00
C 301.17 857.10 302.08 856.62 303.00 856.00
C 306.16 851.11 301.15 846.24 305.78 840.78 C 310.40 835.31 307.09 835.55 312.25 828.25 C 317.42 820.96 322.85 814.68 330.25 808.25 C 337.64 801.82 341.07 796.55 351.08 792.08 C 361.08 787.61 377.26 773.00 388.00 774.00
C 393.16 776.60 405.67 775.20 410.92 777.08 C 416.17 778.96 428.23 783.78 424.00 779.00
C 427.75 779.01 431.80 780.31 435.00 781.00
C 478.23 785.18 524.65 762.97 563.02 750.02 C 601.40 737.08 635.43 716.80 670.70 698.70 C 705.96 680.59 731.68 654.63 765.00 634.00
C 783.08 622.81 784.77 596.14 796.00 580.00
C 795.08 579.98 794.17 581.64 793.00 581.00
C 805.33 570.58 823.61 574.15 839.00 572.00
C 843.41 572.00 848.34 572.65 852.00 573.00
C 866.33 573.00 880.61 575.13 894.00 579.00
C 902.72 581.52 906.04 572.96 905.00 565.00
C 904.05 562.14 901.82 560.05 900.00 558.00
C 907.46 577.00 883.85 566.43 878.75 557.25 C 873.66 548.06 859.33 543.90 853.25 534.75 C 847.17 525.60 835.63 519.03 830.25 509.75 C 824.86 500.48 808.65 494.26 808.00 483.00
C 807.26 484.79 804.70 486.55 805.00 489.00
C 802.56 485.42 806.31 480.45 805.00 476.00
C 804.34 477.46 803.33 479.87 802.00 481.00
C 800.40 465.09 804.13 448.06 807.78 433.78 C 811.43 419.49 816.13 408.82 824.00 397.00
C 823.00 397.00 822.00 397.00 821.00 397.00
C 809.68 398.84 796.59 400.22 786.00 400.00
C 792.20 397.89 798.61 396.55 805.00 395.00
C 805.95 377.97 804.66 358.48 805.00 341.00 C 805.34 323.52 802.13 305.43 800.00 289.00 C 797.88 272.56 794.86 256.10 791.22 240.78 C 787.58 225.45 783.88 211.20 779.02 196.98 C 774.17 182.75 767.89 170.10 762.22 156.78 C 756.56 143.45 750.60 130.74 743.23 118.77 C 735.86 106.80 728.85 96.66 720.25 85.75 C 711.65 74.85 702.19 66.15 692.75 56.25 C 683.32 46.35 672.33 37.89 661.77 30.23 C 651.21 22.57 635.41 16.73 632.00 5.00
C 628.33 5.07 623.32 2.37 620.00 3.00 C 616.68 3.63 609.45 0.35 607.00 2.00
C 607.00 3.67 607.00 5.33 607.00 7.00
M 225.00 334.00 
C 184.94 286.21 159.41 227.79 142.00 169.00
C 169.64 223.73 199.05 278.32 225.00 334.00
M 113.00 331.00 
C 112.60 326.86 112.50 322.10 113.00 318.00
C 113.74 281.08 126.49 247.28 137.00 213.00
C 133.57 257.93 118.45 304.71 116.00 350.00
C 112.16 344.94 113.18 337.43 113.00 331.00
M 744.00 409.00 
C 744.49 414.07 744.61 419.97 744.00 425.00
C 743.84 433.01 742.71 441.08 742.00 449.00
C 737.60 383.61 712.75 301.46 641.00 282.00
C 658.65 322.20 657.63 368.74 662.00 413.00
C 662.32 416.31 662.60 419.66 662.00 423.00
C 660.95 438.47 656.42 467.68 636.93 469.93 C 617.44 472.17 607.59 447.19 600.00 434.00
C 591.74 427.08 583.62 422.19 578.23 411.77 C 572.84 401.35 566.72 392.58 564.22 380.78 C 561.72 368.98 557.24 354.54 558.00 342.00 C 558.76 329.46 552.73 311.50 559.00 300.00
C 546.87 308.32 537.23 321.78 536.00 336.00
C 532.01 317.18 546.55 299.74 561.00 289.00
C 564.75 285.25 564.75 282.88 568.75 278.75 C 572.75 274.63 578.57 275.67 584.00 275.00
C 622.35 259.21 669.38 271.41 698.25 300.75 C 727.12 330.09 744.00 367.74 744.00 409.00
M 394.00 337.00 
C 392.00 336.93 388.13 336.23 387.00 338.00
C 384.75 360.60 396.93 382.13 399.99 404.01 C 403.05 425.89 405.92 454.95 407.00 477.00 C 408.08 499.05 407.29 528.60 400.08 547.08 C 392.86 565.55 378.95 585.89 357.78 583.22 C 336.61 580.55 332.19 553.46 327.02 534.98 C 321.85 516.49 317.08 489.80 313.07 468.93 C 309.07 448.06 307.50 418.07 306.00 396.00
C 302.72 407.60 291.65 417.01 290.07 430.07 C 288.50 443.14 279.38 456.24 280.01 470.01 C 280.64 483.78 279.73 501.32 283.33 514.67 C 286.92 528.02 288.83 539.44 298.00 550.00
C 292.39 553.29 286.79 549.14 282.00 547.00
C 291.18 561.67 307.12 572.45 323.00 578.00
C 283.33 573.40 257.07 543.34 250.01 502.99 C 242.95 462.65 255.82 416.98 276.77 382.77 C 297.72 348.56 324.16 328.38 363.01 319.01 C 401.86 309.64 442.33 332.10 457.00 370.00
C 437.59 356.33 417.65 341.17 394.00 337.00
M 584.00 558.00 
C 580.85 563.53 580.42 568.80 572.98 569.98 C 565.53 571.15 558.59 571.53 551.93 569.07 C 545.26 566.62 541.35 566.26 535.31 562.69 C 529.26 559.13 526.86 557.72 520.75 553.25 C 514.65 548.77 516.90 542.29 519.00 537.00
C 522.50 528.20 523.94 519.92 534.02 517.02 C 544.11 514.13 547.91 507.31 557.68 505.68 C 567.44 504.05 577.38 499.57 587.00 500.00 C 596.62 500.43 608.56 502.39 608.99 513.01 C 609.43 523.62 600.27 528.03 598.08 537.08 C 595.88 546.12 588.35 550.35 584.00 558.00
M 601.00 633.00 
C 603.06 638.23 593.73 645.26 590.75 649.75 C 587.77 654.24 580.97 658.21 576.75 662.75 C 572.53 667.29 566.96 670.18 561.77 674.77 C 556.58 679.36 551.22 680.77 544.31 684.31 C 537.40 687.84 530.79 687.57 522.00 689.00 C 513.21 690.43 508.55 684.56 503.00 680.00
C 496.36 677.98 489.23 674.36 487.00 667.00
C 507.79 662.00 530.64 667.31 551.00 659.00
C 556.02 656.20 559.84 650.22 564.75 646.75 C 569.66 643.28 575.69 639.31 580.00 635.00
C 588.93 624.55 589.97 613.58 590.00 600.00
C 590.53 613.43 601.64 629.03 614.08 619.08 C 626.53 609.13 630.59 602.32 645.00 598.00
C 636.57 614.35 621.37 633.56 601.00 633.00 Z"/>
</g>
<g fill="None" fill-opacity="0.0" stroke="#91CAD0" stroke-opacity="0.98" stroke-width="0.3"><path d="
M 632.00 5.00 
C 635.41 16.73 651.21 22.57 661.77 30.23 C 672.33 37.89 683.32 46.35 692.75 56.25 C 702.19 66.15 711.65 74.85 720.25 85.75 C 728.85 96.66 735.86 106.80 743.23 118.77 C 750.60 130.74 756.56 143.45 762.22 156.78 C 767.89 170.10 774.17 182.75 779.02 196.98 C 783.88 211.20 787.58 225.45 791.22 240.78 C 794.86 256.10 797.88 272.56 800.00 289.00 C 802.13 305.43 805.34 323.52 805.00 341.00 C 804.66 358.48 805.95 377.97 805.00 395.00
C 809.32 394.04 813.52 393.58 818.00 393.00
C 838.05 357.89 837.99 308.87 831.78 270.22 C 825.57 231.57 814.17 193.34 797.31 159.69 C 780.44 126.05 767.02 98.80 741.00 72.00
C 774.16 114.85 791.85 157.69 807.32 209.68 C 822.79 261.66 835.50 331.52 813.00 385.00
C 817.93 347.17 818.68 295.60 810.67 258.33 C 802.67 221.05 793.33 183.28 779.07 149.93 C 764.82 116.57 751.32 89.00 727.25 62.75 C 703.17 36.50 673.07 19.75 641.00 9.00
C 664.79 10.61 686.67 27.93 707.00 41.00
C 686.21 23.84 659.61 4.45 632.00 5.00 Z"/>
</g>
<g fill="None" fill-opacity="0.0" stroke="#91CAD0" stroke-opacity="0.98" stroke-width="0.3"><path d="
M 608.00 16.00 
C 608.00 12.89 607.26 9.45 607.00 7.00
C 607.00 10.09 607.77 13.58 608.00 16.00 Z"/>
</g>
<g fill="None" fill-opacity="0.0" stroke="#000002" stroke-opacity="1.00" stroke-width="0.3"><path d="
M 741.00 72.00 
C 730.56 61.24 718.46 48.25 707.00 41.00
C 686.67 27.93 664.79 10.61 641.00 9.00
C 673.07 19.75 703.17 36.50 727.25 62.75 C 751.32 89.00 764.82 116.57 779.07 149.93 C 793.33 183.28 802.67 221.05 810.67 258.33 C 818.68 295.60 817.93 347.17 813.00 385.00
C 835.50 331.52 822.79 261.66 807.32 209.68 C 791.85 157.69 774.16 114.85 741.00 72.00 Z"/>
</g>
<g fill="None" fill-opacity="0.0" stroke="#000002" stroke-opacity="0.99" stroke-width="0.3"><path d="
M 45.00 328.00 
C 41.25 370.67 51.28 413.00 70.00 450.00
C 68.67 450.00 67.33 450.00 66.00 450.00
C 41.47 463.18 17.43 484.34 1.00 508.00
C 11.70 507.58 16.23 522.01 23.75 529.25 C 31.28 536.48 37.82 545.98 45.75 553.25 C 53.68 560.52 61.09 569.10 69.00 576.00
C 47.83 590.06 26.75 606.19 4.00 617.00
C 7.06 618.66 11.69 620.04 15.00 621.00
C 32.81 626.19 52.46 607.36 66.25 597.25 C 80.05 587.15 93.14 573.00 104.23 558.23 C 115.32 543.46 126.55 523.62 126.00 504.00
C 125.93 501.65 126.43 499.69 125.00 498.00
C 127.53 502.56 121.25 511.50 120.23 516.23 C 119.21 520.96 114.83 526.57 111.75 530.75 C 108.67 534.94 105.67 540.64 101.25 544.25 C 96.82 547.85 94.04 552.10 90.25 556.25 C 86.46 560.39 81.89 564.77 77.00 567.00
C 72.33 569.13 70.18 563.54 65.75 560.25 C 61.32 556.96 57.99 552.69 54.00 549.00
C 48.43 544.94 44.78 542.48 39.75 537.25 C 34.72 532.02 31.49 529.75 25.75 524.25 C 20.02 518.74 19.22 518.25 12.25 511.75 C 5.28 505.25 15.75 502.43 20.00 499.00
C 21.00 498.19 22.58 492.35 25.25 490.25 C 27.92 488.15 31.38 484.24 34.00 482.00
C 37.65 478.35 41.10 474.33 45.00 471.00
C 51.76 465.23 58.96 458.59 67.00 455.00
C 68.67 454.25 70.86 453.25 73.00 453.00
C 83.77 472.21 104.32 485.42 125.00 490.00
C 88.60 476.37 73.91 446.94 65.02 409.98 C 56.14 373.02 57.01 323.07 66.33 285.33 C 75.65 247.58 84.12 212.73 96.93 175.93 C 109.74 139.12 118.80 99.06 120.00 59.00
C 125.06 75.20 130.74 92.29 142.00 106.00
C 151.64 120.94 164.32 134.33 176.00 148.00
C 178.99 150.99 182.27 153.81 185.00 157.00
C 230.64 203.77 280.72 247.83 339.00 275.00
C 318.07 257.63 293.94 241.24 275.00 222.00
C 298.55 202.09 325.31 186.82 354.00 177.00
C 357.01 175.97 360.00 175.03 363.00 174.00
C 364.98 173.32 370.71 169.58 368.00 171.00
C 331.69 171.80 297.39 193.33 274.00 222.00
C 226.54 184.36 178.81 142.14 143.00 93.00
C 130.77 76.22 125.48 59.40 122.00 39.00
C 121.72 37.75 122.60 35.53 121.00 35.00
C 119.49 39.51 120.30 47.49 118.00 39.00
C 116.28 89.90 94.49 134.06 79.32 181.32 C 64.16 228.59 49.42 277.72 45.00 328.00 Z"/>
</g>
<g fill="None" fill-opacity="0.0" stroke="#91CAD0" stroke-opacity="0.90" stroke-width="0.3"><path d="
M 143.00 93.00 
C 141.39 83.47 144.07 71.25 137.77 62.23 C 131.47 53.21 128.49 46.48 122.00 39.00
C 125.48 59.40 130.77 76.22 143.00 93.00 Z"/>
</g>
<g fill="None" fill-opacity="0.0" stroke="#91CAD0" stroke-opacity="1.00" stroke-width="0.3"><path d="
M 67.00 455.00 
C 72.19 455.04 75.05 464.07 79.75 467.25 C 84.45 470.42 88.02 475.85 91.75 480.25 C 95.49 484.64 103.36 484.89 106.75 490.25 C 110.13 495.62 121.88 494.32 125.00 498.00
C 126.43 499.69 125.93 501.65 126.00 504.00
C 128.19 502.30 126.44 498.52 127.00 496.00
C 137.13 496.87 142.37 483.76 138.92 476.08 C 135.48 468.39 130.74 462.99 124.92 457.08 C 119.10 451.18 114.23 446.54 108.25 440.75 C 102.27 434.96 97.76 429.09 94.78 421.22 C 91.79 413.36 88.59 405.44 85.98 397.02 C 83.36 388.61 80.08 379.13 78.93 370.07 C 77.78 361.01 76.24 350.04 79.02 341.02 C 81.81 332.01 82.54 323.07 85.22 314.22 C 87.91 305.38 89.29 296.76 92.02 288.02 C 94.75 279.29 98.55 271.37 99.01 262.01 C 99.47 252.64 103.55 243.72 106.01 235.01 C 108.46 226.29 110.04 217.46 113.02 209.02 C 116.01 200.59 118.64 192.28 120.67 183.67 C 122.70 175.07 125.20 165.69 127.22 157.22 C 129.25 148.76 133.93 140.15 134.67 131.67 C 135.42 123.19 142.41 113.65 142.00 106.00
C 130.74 92.29 125.06 75.20 120.00 59.00
C 118.80 99.06 109.74 139.12 96.93 175.93 C 84.12 212.73 75.65 247.58 66.33 285.33 C 57.01 323.07 56.14 373.02 65.02 409.98 C 73.91 446.94 88.60 476.37 125.00 490.00
C 104.32 485.42 83.77 472.21 73.00 453.00
C 70.86 453.25 68.67 454.25 67.00 455.00 Z"/>
</g>
<g fill="None" fill-opacity="0.0" stroke="#91CAD0" stroke-opacity="1.00" stroke-width="0.3"><path d="
M 553.00 204.00 
C 556.96 213.17 560.24 225.11 561.00 234.00
C 531.80 182.47 500.44 131.57 461.00 86.00
C 460.22 85.29 458.89 84.68 458.00 84.00
C 454.89 81.65 452.36 78.04 450.00 76.00
C 449.03 75.49 447.90 75.40 447.00 75.00
C 438.41 75.31 446.62 92.22 450.25 96.75 C 453.87 101.28 458.52 110.79 462.75 116.25 C 466.97 121.71 471.57 129.14 475.75 135.25 C 479.92 141.37 484.29 149.29 488.25 155.75 C 492.21 162.22 496.82 168.75 500.70 175.30 C 504.57 181.85 509.97 187.42 514.23 193.77 C 518.49 200.12 522.31 207.28 526.23 213.77 C 530.15 220.26 534.39 227.88 539.75 233.25 C 545.10 238.63 549.45 248.12 558.92 245.92 C 568.40 243.73 566.46 231.95 563.98 225.02 C 561.49 218.10 556.74 210.43 553.00 204.00 Z"/>
</g>
<g fill="None" fill-opacity="0.0" stroke="#F7FDFD" stroke-opacity="0.85" stroke-width="0.3"><path d="
M 458.00 84.00 
C 455.19 81.00 454.05 78.11 450.00 76.00
C 452.36 78.04 454.89 81.65 458.00 84.00 Z"/>
</g>
<g fill="None" fill-opacity="0.0" stroke="#000002" stroke-opacity="0.99" stroke-width="0.3"><path d="
M 461.00 86.00 
C 500.44 131.57 531.80 182.47 561.00 234.00
C 560.24 225.11 556.96 213.17 553.00 204.00
C 551.16 199.75 549.11 194.99 547.00 191.00
C 537.20 172.45 521.63 149.02 507.75 133.25 C 493.87 117.48 478.18 95.43 461.00 86.00 Z"/>
</g>
<g fill="None" fill-opacity="0.0" stroke="#000002" stroke-opacity="0.98" stroke-width="0.3"><path d="
M 422.00 192.00 
C 420.55 196.34 419.48 199.99 417.00 204.00
C 417.00 204.00 417.24 204.80 417.00 205.00
C 431.59 190.53 429.59 170.29 435.07 151.07 C 440.55 131.86 437.42 105.06 434.00 86.00
C 434.00 104.22 433.88 124.02 430.00 141.00 C 426.12 157.98 429.79 176.76 422.00 192.00 Z"/>
</g>
<g fill="None" fill-opacity="0.0" stroke="#91CAD0" stroke-opacity="0.98" stroke-width="0.3"><path d="
M 185.00 157.00 
C 182.27 153.81 178.99 150.99 176.00 148.00
C 178.73 151.19 182.01 154.01 185.00 157.00 Z"/>
</g>
<g fill="None" fill-opacity="0.0" stroke="#000002" stroke-opacity="1.00" stroke-width="0.3"><path d="
M 225.00 334.00 
C 199.05 278.32 169.64 223.73 142.00 169.00
C 159.41 227.79 184.94 286.21 225.00 334.00 Z"/>
</g>
<g fill="None" fill-opacity="0.0" stroke="#F7FDFD" stroke-opacity="0.99" stroke-width="0.3"><path d="
M 368.00 171.00 
C 370.71 169.58 364.98 173.32 363.00 174.00
C 366.57 174.42 371.92 179.91 375.25 181.75 C 378.57 183.59 385.18 186.65 387.00 188.00
C 382.87 182.81 376.95 173.83 371.00 171.00
C 369.19 170.53 369.25 170.91 368.00 171.00 Z"/>
</g>
<g fill="None" fill-opacity="0.0" stroke="#000002" stroke-opacity="1.00" stroke-width="0.3"><path d="
M 387.00 188.00 
C 405.21 210.84 423.14 234.91 448.00 252.00
C 439.94 234.25 423.34 221.28 411.00 206.00
C 398.11 196.26 386.66 175.07 371.00 171.00
C 376.95 173.83 382.87 182.81 387.00 188.00 Z"/>
</g>
<g fill="None" fill-opacity="0.0" stroke="#91CAD0" stroke-opacity="1.00" stroke-width="0.3"><path d="
M 354.00 177.00 
C 360.10 183.85 365.90 192.20 372.25 198.75 C 378.60 205.30 385.72 211.47 392.25 217.75 C 398.78 224.03 404.62 231.53 410.75 238.25 C 416.88 244.97 422.73 252.73 430.25 257.75 C 437.77 262.78 444.14 274.69 454.92 271.92 C 465.71 269.16 458.85 252.68 453.75 246.25 C 448.66 239.81 440.77 232.55 434.25 226.75 C 427.72 220.96 420.79 214.23 414.00 208.00
C 413.23 207.29 411.89 206.67 411.00 206.00
C 423.34 221.28 439.94 234.25 448.00 252.00
C 423.14 234.91 405.21 210.84 387.00 188.00
C 385.18 186.65 378.57 183.59 375.25 181.75 C 371.92 179.91 366.57 174.42 363.00 174.00
C 360.00 175.03 357.01 175.97 354.00 177.00 Z"/>
</g>
<g fill="None" fill-opacity="0.0" stroke="#F7FDFD" stroke-opacity="0.43" stroke-width="0.3"><path d="
M 417.00 204.00 
C 419.48 199.99 420.55 196.34 422.00 192.00
C 420.63 194.68 415.16 201.20 417.00 204.00 Z"/>
</g>
<g fill="None" fill-opacity="0.0" stroke="#000002" stroke-opacity="1.00" stroke-width="0.3"><path d="
M 113.00 318.00 
C 112.91 322.33 113.00 326.67 113.00 331.00
C 113.18 337.43 112.16 344.94 116.00 350.00
C 118.45 304.71 133.57 257.93 137.00 213.00
C 126.49 247.28 113.74 281.08 113.00 318.00 Z"/>
</g>
<g fill="None" fill-opacity="0.0" stroke="#000002" stroke-opacity="1.00" stroke-width="0.3"><path d="
M 584.00 275.00 
C 575.89 278.34 568.12 283.38 561.00 289.00
C 546.55 299.74 532.01 317.18 536.00 336.00
C 537.23 321.78 546.87 308.32 559.00 300.00
C 566.43 294.91 574.07 288.47 583.00 286.00
C 576.23 335.36 576.70 389.72 600.00 434.00
C 607.59 447.19 617.44 472.17 636.93 469.93 C 656.42 467.68 660.95 438.47 662.00 423.00
C 662.22 419.70 662.00 416.31 662.00 413.00
C 657.63 368.74 658.65 322.20 641.00 282.00
C 712.75 301.46 737.60 383.61 742.00 449.00
C 742.71 441.08 743.84 433.01 744.00 425.00
C 744.11 419.67 744.00 414.33 744.00 409.00
C 744.00 367.74 727.12 330.09 698.25 300.75 C 669.38 271.41 622.35 259.21 584.00 275.00 Z"/>
</g>
<g fill="None" fill-opacity="0.0" stroke="#91CAD0" stroke-opacity="1.00" stroke-width="0.3"><path d="
M 561.00 289.00 
C 568.12 283.38 575.89 278.34 584.00 275.00
C 578.57 275.67 572.75 274.63 568.75 278.75 C 564.75 282.88 564.75 285.25 561.00 289.00 Z"/>
</g>
<g fill="None" fill-opacity="0.0" stroke="#91CAD0" stroke-opacity="1.00" stroke-width="0.3"><path d="
M 559.00 300.00 
C 552.73 311.50 558.76 329.46 558.00 342.00 C 557.24 354.54 561.72 368.98 564.22 380.78 C 566.72 392.58 572.84 401.35 578.23 411.77 C 583.62 422.19 591.74 427.08 600.00 434.00
C 576.70 389.72 576.23 335.36 583.00 286.00
C 574.07 288.47 566.43 294.91 559.00 300.00 Z"/>
</g>
<g fill="None" fill-opacity="0.0" stroke="#000002" stroke-opacity="1.00" stroke-width="0.3"><path d="
M 282.00 547.00 
C 249.32 494.76 269.64 422.61 306.00 378.00
C 306.00 384.00 306.00 390.00 306.00 396.00
C 307.50 418.07 309.07 448.06 313.07 468.93 C 317.08 489.80 321.85 516.49 327.02 534.98 C 332.19 553.46 336.61 580.55 357.78 583.22 C 378.95 585.89 392.86 565.55 400.08 547.08 C 407.29 528.60 408.08 499.05 407.00 477.00 C 405.92 454.95 403.05 425.89 399.99 404.01 C 396.93 382.13 384.75 360.60 387.00 338.00
C 387.35 334.53 390.53 336.44 394.00 337.00
C 417.65 341.17 437.59 356.33 457.00 370.00
C 442.33 332.10 401.86 309.64 363.01 319.01 C 324.16 328.38 297.72 348.56 276.77 382.77 C 255.82 416.98 242.95 462.65 250.01 502.99 C 257.07 543.34 283.33 573.40 323.00 578.00
C 307.12 572.45 291.18 561.67 282.00 547.00 Z"/>
</g>
<g fill="None" fill-opacity="0.0" stroke="#91CAD0" stroke-opacity="1.00" stroke-width="0.3"><path d="
M 113.00 331.00 
C 113.00 326.67 112.91 322.33 113.00 318.00
C 112.50 322.10 112.60 326.86 113.00 331.00 Z"/>
</g>
<g fill="None" fill-opacity="0.0" stroke="#91CAD0" stroke-opacity="0.89" stroke-width="0.3"><path d="
M 66.00 450.00 
C 67.33 450.00 68.67 450.00 70.00 450.00
C 51.28 413.00 41.25 370.67 45.00 328.00
C 42.43 336.03 39.59 345.01 39.00 354.00 C 38.41 362.99 39.27 373.33 40.67 381.33 C 42.07 389.33 44.51 399.80 47.07 406.93 C 49.64 414.05 52.09 424.06 55.23 429.77 C 58.37 435.48 59.88 449.02 66.00 450.00 Z"/>
</g>
<g fill="None" fill-opacity="0.0" stroke="#91CAD0" stroke-opacity="1.00" stroke-width="0.3"><path d="
M 387.00 338.00 
C 388.13 336.23 392.00 336.93 394.00 337.00
C 390.53 336.44 387.35 334.53 387.00 338.00 Z"/>
</g>
<g fill="None" fill-opacity="0.0" stroke="#91CAD0" stroke-opacity="1.00" stroke-width="0.3"><path d="
M 282.00 547.00 
C 286.79 549.14 292.39 553.29 298.00 550.00
C 288.83 539.44 286.92 528.02 283.33 514.67 C 279.73 501.32 280.64 483.78 280.01 470.01 C 279.38 456.24 288.50 443.14 290.07 430.07 C 291.65 417.01 302.72 407.60 306.00 396.00
C 306.00 390.00 306.00 384.00 306.00 378.00
C 269.64 422.61 249.32 494.76 282.00 547.00 Z"/>
</g>
<g fill="None" fill-opacity="0.0" stroke="#F7FDFD" stroke-opacity="0.73" stroke-width="0.3"><path d="
M 826.00 392.00 
C 828.13 391.86 830.91 391.63 833.00 392.00
C 833.00 389.33 833.00 386.67 833.00 384.00
C 828.83 380.62 821.56 389.22 826.00 392.00 Z"/>
</g>
<g fill="None" fill-opacity="0.0" stroke="#000002" stroke-opacity="0.99" stroke-width="0.3"><path d="
M 818.00 393.00 
C 813.52 393.58 809.32 394.04 805.00 395.00
C 798.61 396.55 792.20 397.89 786.00 400.00
C 796.59 400.22 809.68 398.84 821.00 397.00
C 824.38 396.45 833.46 392.93 837.00 394.00
C 836.00 393.27 834.43 392.25 833.00 392.00
C 830.91 391.63 828.13 391.86 826.00 392.00
C 823.16 392.18 820.79 392.64 818.00 393.00 Z"/>
</g>
<g fill="None" fill-opacity="0.0" stroke="#91CAD0" stroke-opacity="1.00" stroke-width="0.3"><path d="
M 821.00 397.00 
C 822.00 397.00 823.00 397.00 824.00 397.00
C 816.13 408.82 811.43 419.49 807.78 433.78 C 804.13 448.06 800.40 465.09 802.00 481.00
C 803.33 479.87 804.34 477.46 805.00 476.00
C 807.31 470.90 808.57 464.52 809.78 458.78 C 810.99 453.03 812.77 446.24 814.93 440.93 C 817.08 435.61 819.39 430.43 821.31 425.31 C 823.22 420.18 827.89 415.36 829.75 410.75 C 831.61 406.15 838.49 401.00 839.00 397.00
C 838.86 394.24 838.63 395.19 837.00 394.00
C 833.46 392.93 824.38 396.45 821.00 397.00 Z"/>
</g>
<g fill="None" fill-opacity="0.0" stroke="#000002" stroke-opacity="0.98" stroke-width="0.3"><path d="
M 805.00 476.00 
C 806.31 480.45 802.56 485.42 805.00 489.00
C 804.70 486.55 807.26 484.79 808.00 483.00
C 809.89 478.41 811.49 472.84 813.00 468.00
C 814.63 462.78 815.95 457.41 817.00 452.00
C 830.03 457.81 837.38 471.32 846.00 482.00
C 857.50 492.53 863.79 507.92 872.30 520.70 C 880.82 533.47 889.59 546.29 900.00 558.00
C 901.82 560.05 904.05 562.14 905.00 565.00
C 892.67 520.92 862.58 471.54 819.00 449.00
C 818.87 439.73 827.60 431.33 828.69 422.69 C 829.79 414.06 839.44 405.37 839.00 397.00
C 838.49 401.00 831.61 406.15 829.75 410.75 C 827.89 415.36 823.22 420.18 821.31 425.31 C 819.39 430.43 817.08 435.61 814.93 440.93 C 812.77 446.24 810.99 453.03 809.78 458.78 C 808.57 464.52 807.31 470.90 805.00 476.00 Z"/>
</g>
<g fill="None" fill-opacity="0.0" stroke="#91CAD0" stroke-opacity="1.00" stroke-width="0.3"><path d="
M 744.00 425.00 
C 744.61 419.97 744.49 414.07 744.00 409.00
C 744.00 414.33 744.11 419.67 744.00 425.00 Z"/>
</g>
<g fill="None" fill-opacity="0.0" stroke="#91CAD0" stroke-opacity="1.00" stroke-width="0.3"><path d="
M 662.00 423.00 
C 662.60 419.66 662.32 416.31 662.00 413.00
C 662.00 416.31 662.22 419.70 662.00 423.00 Z"/>
</g>
<g fill="None" fill-opacity="0.0" stroke="#F7FDFD" stroke-opacity="0.97" stroke-width="0.3"><path d="
M 813.00 468.00 
C 823.76 458.72 838.81 475.42 846.00 482.00
C 837.38 471.32 830.03 457.81 817.00 452.00
C 815.95 457.41 814.63 462.78 813.00 468.00 Z"/>
</g>
<g fill="None" fill-opacity="0.0" stroke="#F7FDFD" stroke-opacity="1.00" stroke-width="0.3"><path d="
M 45.00 471.00 
C 41.35 474.65 37.90 478.67 34.00 482.00
C 31.38 484.24 27.92 488.15 25.25 490.25 C 22.58 492.35 21.00 498.19 20.00 499.00
C 31.37 500.11 40.42 511.14 51.23 515.77 C 62.04 520.40 70.79 526.56 81.23 533.77 C 91.67 540.98 92.48 561.13 75.00 560.00
C 74.07 562.02 77.26 565.75 77.00 567.00
C 81.89 564.77 86.46 560.39 90.25 556.25 C 94.04 552.10 96.82 547.85 101.25 544.25 C 105.67 540.64 108.67 534.94 111.75 530.75 C 114.83 526.57 119.21 520.96 120.23 516.23 C 121.25 511.50 127.53 502.56 125.00 498.00
C 121.88 494.32 110.13 495.62 106.75 490.25 C 103.36 484.89 95.49 484.64 91.75 480.25 C 88.02 475.85 84.45 470.42 79.75 467.25 C 75.05 464.07 72.19 455.04 67.00 455.00
C 58.96 458.59 51.76 465.23 45.00 471.00 Z"/>
</g>
<g fill="None" fill-opacity="0.0" stroke="#91CAD0" stroke-opacity="1.00" stroke-width="0.3"><path d="
M 813.00 468.00 
C 811.49 472.84 809.89 478.41 808.00 483.00
C 808.65 494.26 824.86 500.48 830.25 509.75 C 835.63 519.03 847.17 525.60 853.25 534.75 C 859.33 543.90 873.66 548.06 878.75 557.25 C 883.85 566.43 907.46 577.00 900.00 558.00
C 889.59 546.29 880.82 533.47 872.30 520.70 C 863.79 507.92 857.50 492.53 846.00 482.00
C 838.81 475.42 823.76 458.72 813.00 468.00 Z"/>
</g>
<g fill="None" fill-opacity="0.0" stroke="#91CAD0" stroke-opacity="1.00" stroke-width="0.3"><path d="
M 34.00 482.00 
C 37.90 478.67 41.35 474.65 45.00 471.00
C 41.10 474.33 37.65 478.35 34.00 482.00 Z"/>
</g>
<g fill="None" fill-opacity="0.0" stroke="#91CAD0" stroke-opacity="0.99" stroke-width="0.3"><path d="
M 54.00 549.00 
C 60.25 553.55 67.08 559.49 75.00 560.00
C 92.48 561.13 91.67 540.98 81.23 533.77 C 70.79 526.56 62.04 520.40 51.23 515.77 C 40.42 511.14 31.37 500.11 20.00 499.00
C 15.75 502.43 5.28 505.25 12.25 511.75 C 19.22 518.25 20.02 518.74 25.75 524.25 C 31.49 529.75 34.72 532.02 39.75 537.25 C 44.78 542.48 48.43 544.94 54.00 549.00 Z"/>
</g>
<g fill="None" fill-opacity="0.0" stroke="#000002" stroke-opacity="1.00" stroke-width="0.3"><path d="
M 519.00 537.00 
C 520.37 545.39 530.77 544.69 536.25 549.75 C 541.72 554.82 551.57 555.67 558.68 558.32 C 565.78 560.97 576.82 562.54 584.00 558.00
C 588.35 550.35 595.88 546.12 598.08 537.08 C 600.27 528.03 609.43 523.62 608.99 513.01 C 608.56 502.39 596.62 500.43 587.00 500.00 C 577.38 499.57 567.44 504.05 557.68 505.68 C 547.91 507.31 544.11 514.13 534.02 517.02 C 523.94 519.92 522.50 528.20 519.00 537.00 Z"/>
</g>
<g fill="None" fill-opacity="0.0" stroke="#91CAD0" stroke-opacity="1.00" stroke-width="0.3"><path d="
M 584.00 558.00 
C 576.82 562.54 565.78 560.97 558.68 558.32 C 551.57 555.67 541.72 554.82 536.25 549.75 C 530.77 544.69 520.37 545.39 519.00 537.00
C 516.90 542.29 514.65 548.77 520.75 553.25 C 526.86 557.72 529.26 559.13 535.31 562.69 C 541.35 566.26 545.26 566.62 551.93 569.07 C 558.59 571.53 565.53 571.15 572.98 569.98 C 580.42 568.80 580.85 563.53 584.00 558.00 Z"/>
</g>
<g fill="None" fill-opacity="0.0" stroke="#000002" stroke-opacity="0.01" stroke-width="0.3"><path d="
M 77.00 567.00 
C 77.26 565.75 74.07 562.02 75.00 560.00
C 67.08 559.49 60.25 553.55 54.00 549.00
C 57.99 552.69 61.32 556.96 65.75 560.25 C 70.18 563.54 72.33 569.13 77.00 567.00 Z"/>
</g>
<g fill="None" fill-opacity="0.0" stroke="#000002" stroke-opacity="0.99" stroke-width="0.3"><path d="
M 796.00 580.00 
C 828.22 580.71 862.64 577.19 894.00 579.00
C 880.61 575.13 866.33 573.00 852.00 573.00
C 847.59 573.00 842.66 572.35 839.00 572.00
C 823.61 574.15 805.33 570.58 793.00 581.00
C 794.17 581.64 795.08 579.98 796.00 580.00 Z"/>
</g>
<g fill="None" fill-opacity="0.0" stroke="#91CAD0" stroke-opacity="1.00" stroke-width="0.3"><path d="
M 852.00 573.00 
C 848.34 572.65 843.41 572.00 839.00 572.00
C 842.66 572.35 847.59 573.00 852.00 573.00 Z"/>
</g>
<g fill="None" fill-opacity="0.0" stroke="#000002" stroke-opacity="1.00" stroke-width="0.3"><path d="
M 20.00 631.00 
C 34.46 636.75 52.95 634.52 69.00 636.00 C 85.05 637.48 103.54 634.36 119.00 632.00
C 126.45 630.86 133.59 629.35 141.00 628.00
C 183.51 618.90 226.17 608.50 267.00 595.00
C 253.15 592.26 235.86 594.37 222.00 596.00 C 208.14 597.63 194.71 599.09 181.67 602.67 C 168.63 606.26 156.28 609.29 143.22 612.22 C 130.16 615.15 118.75 619.73 105.22 621.22 C 91.69 622.71 77.11 627.89 63.00 627.00 C 48.89 626.11 33.76 632.81 20.00 631.00 Z"/>
</g>
<g fill="None" fill-opacity="0.0" stroke="#000002" stroke-opacity="1.00" stroke-width="0.3"><path d="
M 580.00 635.00 
C 571.89 644.49 562.38 654.42 551.00 659.00
C 530.64 667.31 507.79 662.00 487.00 667.00
C 489.23 674.36 496.36 677.98 503.00 680.00
C 540.74 691.45 581.23 663.12 593.00 628.00
C 595.51 630.06 598.02 631.80 601.00 633.00
C 621.37 633.56 636.57 614.35 645.00 598.00
C 630.59 602.32 626.53 609.13 614.08 619.08 C 601.64 629.03 590.53 613.43 590.00 600.00
C 589.97 613.58 588.93 624.55 580.00 635.00 Z"/>
</g>
<g fill="None" fill-opacity="0.0" stroke="#91CAD0" stroke-opacity="0.99" stroke-width="0.3"><path d="
M 119.00 632.00 
C 111.77 647.95 105.91 666.00 102.00 682.00
C 109.79 665.34 119.20 648.84 128.00 633.00
C 117.08 668.86 100.26 702.66 85.00 737.00
C 84.52 739.08 82.75 747.01 83.00 750.00
C 84.29 752.38 83.76 752.95 86.00 755.00
C 85.78 754.87 90.13 755.78 91.00 756.00
C 89.15 754.28 97.30 749.37 98.70 745.70 C 100.09 742.02 103.65 737.67 106.08 733.08 C 108.50 728.48 109.38 725.13 112.23 719.23 C 115.07 713.33 114.97 713.81 118.69 705.70 C 122.42 697.58 127.29 685.64 130.23 677.23 C 133.17 668.81 133.92 669.63 136.01 663.01 C 138.09 656.39 137.37 652.50 140.00 647.00 C 142.63 641.50 137.80 632.43 141.00 628.00
C 133.59 629.35 126.45 630.86 119.00 632.00 Z"/>
</g>
<g fill="None" fill-opacity="0.0" stroke="#91CAD0" stroke-opacity="1.00" stroke-width="0.3"><path d="
M 503.00 680.00 
C 508.55 684.56 513.21 690.43 522.00 689.00 C 530.79 687.57 537.40 687.84 544.31 684.31 C 551.22 680.77 556.58 679.36 561.77 674.77 C 566.96 670.18 572.53 667.29 576.75 662.75 C 580.97 658.21 587.77 654.24 590.75 649.75 C 593.73 645.26 603.06 638.23 601.00 633.00
C 598.02 631.80 595.51 630.06 593.00 628.00
C 581.23 663.12 540.74 691.45 503.00 680.00 Z"/>
</g>
<g fill="None" fill-opacity="0.0" stroke="#000002" stroke-opacity="1.00" stroke-width="0.3"><path d="
M 102.00 682.00 
C 97.71 693.80 90.40 704.27 85.93 715.93 C 81.45 727.58 71.48 739.01 74.00 752.00
C 76.67 751.47 79.69 748.21 81.00 746.00
C 82.54 743.41 83.56 739.82 85.00 737.00
C 100.26 702.66 117.08 668.86 128.00 633.00
C 119.20 648.84 109.79 665.34 102.00 682.00 Z"/>
</g>
<g fill="None" fill-opacity="0.0" stroke="#000002" stroke-opacity="0.98" stroke-width="0.3"><path d="
M 435.00 781.00 
C 437.92 781.63 441.40 782.00 445.00 782.00
C 448.00 782.00 451.00 782.00 454.00 782.00
C 515.10 782.00 576.79 751.34 630.31 728.31 C 683.82 705.27 721.47 671.94 765.00 634.00
C 731.68 654.63 705.96 680.59 670.70 698.70 C 635.43 716.80 601.40 737.08 563.02 750.02 C 524.65 762.97 478.23 785.18 435.00 781.00 Z"/>
</g>
<g fill="None" fill-opacity="0.0" stroke="#91CAD0" stroke-opacity="1.00" stroke-width="0.3"><path d="
M 551.00 659.00 
C 562.38 654.42 571.89 644.49 580.00 635.00
C 575.69 639.31 569.66 643.28 564.75 646.75 C 559.84 650.22 556.02 656.20 551.00 659.00 Z"/>
</g>
<g fill="None" fill-opacity="0.0" stroke="#F7FDFD" stroke-opacity="0.91" stroke-width="0.3"><path d="
M 81.00 746.00 
C 81.04 748.68 82.04 748.23 83.00 750.00
C 82.75 747.01 84.52 739.08 85.00 737.00
C 83.56 739.82 82.54 743.41 81.00 746.00 Z"/>
</g>
<g fill="None" fill-opacity="0.0" stroke="#000002" stroke-opacity="1.00" stroke-width="0.3"><path d="
M 86.00 755.00 
C 93.46 761.83 102.26 762.53 111.98 764.02 C 121.69 765.51 131.88 766.53 142.00 768.00 C 152.12 769.47 164.93 766.26 175.00 769.00 C 185.07 771.74 198.48 764.40 208.00 768.00
C 213.93 770.24 215.43 785.57 221.25 790.75 C 227.08 795.93 231.55 804.84 237.25 810.75 C 242.94 816.67 249.06 823.45 255.00 829.00
C 271.47 842.33 287.63 856.81 307.00 865.00
C 304.81 862.44 302.42 859.42 300.00 857.00
C 297.91 854.91 295.26 851.94 293.00 850.00
C 264.79 825.89 233.97 798.89 213.00 768.00
C 215.91 768.59 218.06 766.41 221.00 767.00
C 239.74 766.24 257.57 761.89 276.00 760.00
C 263.27 758.56 249.45 756.00 236.00 756.00
C 232.54 756.33 228.39 756.33 225.00 756.00
C 202.75 756.00 178.00 758.78 156.00 758.00 C 134.00 757.22 112.53 761.35 91.00 756.00
C 90.13 755.78 85.78 754.87 86.00 755.00 Z"/>
</g>
<g fill="None" fill-opacity="0.0" stroke="#91CAD0" stroke-opacity="1.00" stroke-width="0.3"><path d="
M 236.00 756.00 
C 232.33 756.00 228.67 756.00 225.00 756.00
C 228.39 756.33 232.54 756.33 236.00 756.00 Z"/>
</g>
<g fill="None" fill-opacity="0.0" stroke="#91CAD0" stroke-opacity="1.00" stroke-width="0.3"><path d="
M 293.00 850.00 
C 294.93 849.47 296.24 851.05 298.00 851.00
C 294.95 845.51 289.92 840.81 286.30 835.70 C 282.69 830.58 277.61 826.13 273.77 821.23 C 269.93 816.33 265.82 810.99 261.30 806.70 C 256.79 802.40 253.22 796.17 248.75 792.25 C 244.28 788.33 240.23 781.43 235.08 778.92 C 229.94 776.40 225.91 768.52 221.00 767.00
C 218.06 766.41 215.91 768.59 213.00 768.00
C 233.97 798.89 264.79 825.89 293.00 850.00 Z"/>
</g>
<g fill="None" fill-opacity="0.0" stroke="#91CAD0" stroke-opacity="0.85" stroke-width="0.3"><path d="
M 255.00 829.00 
C 249.06 823.45 242.94 816.67 237.25 810.75 C 231.55 804.84 227.08 795.93 221.25 790.75 C 215.43 785.57 213.93 770.24 208.00 768.00
C 202.40 782.32 216.20 793.29 225.25 802.75 C 234.30 812.21 244.59 821.57 255.00 829.00 Z"/>
</g>
<g fill="None" fill-opacity="0.0" stroke="#000002" stroke-opacity="0.98" stroke-width="0.3"><path d="
M 303.00 856.00 
C 308.42 852.34 308.65 838.86 315.75 834.75 C 322.85 830.64 325.91 822.74 332.77 818.77 C 339.63 814.80 345.17 807.77 351.75 803.75 C 358.34 799.74 364.06 793.16 370.25 789.25 C 376.44 785.34 380.77 775.09 388.00 774.00
C 377.26 773.00 361.08 787.61 351.08 792.08 C 341.07 796.55 337.64 801.82 330.25 808.25 C 322.85 814.68 317.42 820.96 312.25 828.25 C 307.09 835.55 310.40 835.31 305.78 840.78 C 301.15 846.24 306.16 851.11 303.00 856.00 Z"/>
</g>
<g fill="None" fill-opacity="0.0" stroke="#F7FDFD" stroke-opacity="0.64" stroke-width="0.3"><path d="
M 454.00 782.00 
C 451.00 782.00 448.00 782.00 445.00 782.00
C 447.76 782.27 451.18 782.27 454.00 782.00 Z"/>
</g>
<g fill="#000002" fill-opacity="0.00" stroke="None">
<path d="
M 0.00 870.00 
L 907.00 870.00
L 907.00 0.00
L 0.00 0.00
L 0.00 870.00
M 632.00 5.00 
C 659.61 4.45 686.21 23.84 707.00 41.00
C 718.46 48.25 730.56 61.24 741.00 72.00
C 767.02 98.80 780.44 126.05 797.31 159.69 C 814.17 193.34 825.57 231.57 831.78 270.22 C 837.99 308.87 838.05 357.89 818.00 393.00
C 820.79 392.64 823.16 392.18 826.00 392.00
C 821.56 389.22 828.83 380.62 833.00 384.00
C 833.00 386.67 833.00 389.33 833.00 392.00
C 834.43 392.25 836.00 393.27 837.00 394.00
C 838.63 395.19 838.86 394.24 839.00 397.00
C 839.44 405.37 829.79 414.06 828.69 422.69 C 827.60 431.33 818.87 439.73 819.00 449.00
C 862.58 471.54 892.67 520.92 905.00 565.00
C 906.04 572.96 902.72 581.52 894.00 579.00
C 862.64 577.19 828.22 580.71 796.00 580.00
C 784.77 596.14 783.08 622.81 765.00 634.00
C 721.47 671.94 683.82 705.27 630.31 728.31 C 576.79 751.34 515.10 782.00 454.00 782.00
C 451.18 782.27 447.76 782.27 445.00 782.00
C 441.40 782.00 437.92 781.63 435.00 781.00
C 431.80 780.31 427.75 779.01 424.00 779.00
C 428.23 783.78 416.17 778.96 410.92 777.08 C 405.67 775.20 393.16 776.60 388.00 774.00
C 380.77 775.09 376.44 785.34 370.25 789.25 C 364.06 793.16 358.34 799.74 351.75 803.75 C 345.17 807.77 339.63 814.80 332.77 818.77 C 325.91 822.74 322.85 830.64 315.75 834.75 C 308.65 838.86 308.42 852.34 303.00 856.00
C 302.08 856.62 301.17 857.10 300.00 857.00
C 302.42 859.42 304.81 862.44 307.00 865.00
C 287.63 856.81 271.47 842.33 255.00 829.00
C 244.59 821.57 234.30 812.21 225.25 802.75 C 216.20 793.29 202.40 782.32 208.00 768.00
C 198.48 764.40 185.07 771.74 175.00 769.00 C 164.93 766.26 152.12 769.47 142.00 768.00 C 131.88 766.53 121.69 765.51 111.98 764.02 C 102.26 762.53 93.46 761.83 86.00 755.00
C 83.76 752.95 84.29 752.38 83.00 750.00
C 82.04 748.23 81.04 748.68 81.00 746.00
C 79.69 748.21 76.67 751.47 74.00 752.00
C 71.48 739.01 81.45 727.58 85.93 715.93 C 90.40 704.27 97.71 693.80 102.00 682.00
C 105.91 666.00 111.77 647.95 119.00 632.00
C 103.54 634.36 85.05 637.48 69.00 636.00 C 52.95 634.52 34.46 636.75 20.00 631.00
C 17.70 630.09 8.46 623.62 15.00 621.00
C 11.69 620.04 7.06 618.66 4.00 617.00
C 26.75 606.19 47.83 590.06 69.00 576.00
C 61.09 569.10 53.68 560.52 45.75 553.25 C 37.82 545.98 31.28 536.48 23.75 529.25 C 16.23 522.01 11.70 507.58 1.00 508.00
C 17.43 484.34 41.47 463.18 66.00 450.00
C 59.88 449.02 58.37 435.48 55.23 429.77 C 52.09 424.06 49.64 414.05 47.07 406.93 C 44.51 399.80 42.07 389.33 40.67 381.33 C 39.27 373.33 38.41 362.99 39.00 354.00 C 39.59 345.01 42.43 336.03 45.00 328.00
C 49.42 277.72 64.16 228.59 79.32 181.32 C 94.49 134.06 116.28 89.90 118.00 39.00
C 120.30 47.49 119.49 39.51 121.00 35.00
C 122.60 35.53 121.72 37.75 122.00 39.00
C 128.49 46.48 131.47 53.21 137.77 62.23 C 144.07 71.25 141.39 83.47 143.00 93.00
C 178.81 142.14 226.54 184.36 274.00 222.00
C 297.39 193.33 331.69 171.80 368.00 171.00
C 369.25 170.91 369.19 170.53 371.00 171.00
C 386.66 175.07 398.11 196.26 411.00 206.00
C 411.89 206.67 413.23 207.29 414.00 208.00
C 414.35 207.98 416.48 205.42 417.00 205.00
C 417.24 204.80 417.00 204.00 417.00 204.00
C 415.16 201.20 420.63 194.68 422.00 192.00
C 429.79 176.76 426.12 157.98 430.00 141.00 C 433.88 124.02 434.00 104.22 434.00 86.00
C 434.00 76.34 437.29 70.68 447.00 75.00
C 447.90 75.40 449.03 75.49 450.00 76.00
C 454.05 78.11 455.19 81.00 458.00 84.00
C 458.89 84.68 460.22 85.29 461.00 86.00
C 478.18 95.43 493.87 117.48 507.75 133.25 C 521.63 149.02 537.20 172.45 547.00 191.00
C 547.28 187.06 552.11 184.77 554.00 183.00
C 557.12 178.19 558.08 172.00 560.93 166.93 C 563.77 161.85 565.60 156.58 568.31 151.31 C 571.01 146.03 573.11 140.15 575.77 134.77 C 578.44 129.39 579.81 123.86 582.32 118.32 C 584.83 112.78 586.59 106.65 588.93 100.93 C 591.27 95.20 591.88 88.85 593.99 82.99 C 596.10 77.13 597.62 71.14 598.98 64.98 C 600.33 58.81 601.61 51.06 603.00 45.00 C 604.38 38.94 604.50 30.52 606.00 25.00 C 607.50 19.48 602.56 4.98 607.00 2.00
C 609.45 0.35 616.68 3.63 620.00 3.00 C 623.32 2.37 628.33 5.07 632.00 5.00 Z"/>
</g>
<g fill="#000002" fill-opacity="0.99" stroke="None">
<path d="
M 554.00 183.00 
C 575.03 163.34 580.35 137.42 592.31 111.31 C 604.26 85.19 608.00 46.15 608.00 16.00
C 607.77 13.58 607.00 10.09 607.00 7.00
C 607.00 5.33 607.00 3.67 607.00 2.00
C 602.56 4.98 607.50 19.48 606.00 25.00 C 604.50 30.52 604.38 38.94 603.00 45.00 C 601.61 51.06 600.33 58.81 598.98 64.98 C 597.62 71.14 596.10 77.13 593.99 82.99 C 591.88 88.85 591.27 95.20 588.93 100.93 C 586.59 106.65 584.83 112.78 582.32 118.32 C 579.81 123.86 578.44 129.39 575.77 134.77 C 573.11 140.15 571.01 146.03 568.31 151.31 C 565.60 156.58 563.77 161.85 560.93 166.93 C 558.08 172.00 557.12 178.19 554.00 183.00 Z"/>
</g>
<g fill="#F7FDFD" fill-opacity="1.00" stroke="None">
<path d="
M 607.00 7.00 
C 607.26 9.45 608.00 12.89 608.00 16.00
C 608.00 46.15 604.26 85.19 592.31 111.31 C 580.35 137.42 575.03 163.34 554.00 183.00
C 552.11 184.77 547.28 187.06 547.00 191.00
C 549.11 194.99 551.16 199.75 553.00 204.00
C 556.74 210.43 561.49 218.10 563.98 225.02 C 566.46 231.95 568.40 243.73 558.92 245.92 C 549.45 248.12 545.10 238.63 539.75 233.25 C 534.39 227.88 530.15 220.26 526.23 213.77 C 522.31 207.28 518.49 200.12 514.23 193.77 C 509.97 187.42 504.57 181.85 500.70 175.30 C 496.82 168.75 492.21 162.22 488.25 155.75 C 484.29 149.29 479.92 141.37 475.75 135.25 C 471.57 129.14 466.97 121.71 462.75 116.25 C 458.52 110.79 453.87 101.28 450.25 96.75 C 446.62 92.22 438.41 75.31 447.00 75.00
C 437.29 70.68 434.00 76.34 434.00 86.00
C 437.42 105.06 440.55 131.86 435.07 151.07 C 429.59 170.29 431.59 190.53 417.00 205.00
C 416.48 205.42 414.35 207.98 414.00 208.00
C 420.79 214.23 427.72 220.96 434.25 226.75 C 440.77 232.55 448.66 239.81 453.75 246.25 C 458.85 252.68 465.71 269.16 454.92 271.92 C 444.14 274.69 437.77 262.78 430.25 257.75 C 422.73 252.73 416.88 244.97 410.75 238.25 C 404.62 231.53 398.78 224.03 392.25 217.75 C 385.72 211.47 378.60 205.30 372.25 198.75 C 365.90 192.20 360.10 183.85 354.00 177.00
C 325.31 186.82 298.55 202.09 275.00 222.00
C 293.94 241.24 318.07 257.63 339.00 275.00
C 280.72 247.83 230.64 203.77 185.00 157.00
C 182.01 154.01 178.73 151.19 176.00 148.00
C 164.32 134.33 151.64 120.94 142.00 106.00
C 142.41 113.65 135.42 123.19 134.67 131.67 C 133.93 140.15 129.25 148.76 127.22 157.22 C 125.20 165.69 122.70 175.07 120.67 183.67 C 118.64 192.28 116.01 200.59 113.02 209.02 C 110.04 217.46 108.46 226.29 106.01 235.01 C 103.55 243.72 99.47 252.64 99.01 262.01 C 98.55 271.37 94.75 279.29 92.02 288.02 C 89.29 296.76 87.91 305.38 85.22 314.22 C 82.54 323.07 81.81 332.01 79.02 341.02 C 76.24 350.04 77.78 361.01 78.93 370.07 C 80.08 379.13 83.36 388.61 85.98 397.02 C 88.59 405.44 91.79 413.36 94.78 421.22 C 97.76 429.09 102.27 434.96 108.25 440.75 C 114.23 446.54 119.10 451.18 124.92 457.08 C 130.74 462.99 135.48 468.39 138.92 476.08 C 142.37 483.76 137.13 496.87 127.00 496.00
C 126.44 498.52 128.19 502.30 126.00 504.00
C 126.55 523.62 115.32 543.46 104.23 558.23 C 93.14 573.00 80.05 587.15 66.25 597.25 C 52.46 607.36 32.81 626.19 15.00 621.00
C 8.46 623.62 17.70 630.09 20.00 631.00
C 33.76 632.81 48.89 626.11 63.00 627.00 C 77.11 627.89 91.69 622.71 105.22 621.22 C 118.75 619.73 130.16 615.15 143.22 612.22 C 156.28 609.29 168.63 606.26 181.67 602.67 C 194.71 599.09 208.14 597.63 222.00 596.00 C 235.86 594.37 253.15 592.26 267.00 595.00
C 226.17 608.50 183.51 618.90 141.00 628.00
C 137.80 632.43 142.63 641.50 140.00 647.00 C 137.37 652.50 138.09 656.39 136.01 663.01 C 133.92 669.63 133.17 668.81 130.23 677.23 C 127.29 685.64 122.42 697.58 118.69 705.70 C 114.97 713.81 115.07 713.33 112.23 719.23 C 109.38 725.13 108.50 728.48 106.08 733.08 C 103.65 737.67 100.09 742.02 98.70 745.70 C 97.30 749.37 89.15 754.28 91.00 756.00
C 112.53 761.35 134.00 757.22 156.00 758.00 C 178.00 758.78 202.75 756.00 225.00 756.00
C 228.67 756.00 232.33 756.00 236.00 756.00
C 249.45 756.00 263.27 758.56 276.00 760.00
C 257.57 761.89 239.74 766.24 221.00 767.00
C 225.91 768.52 229.94 776.40 235.08 778.92 C 240.23 781.43 244.28 788.33 248.75 792.25 C 253.22 796.17 256.79 802.40 261.30 806.70 C 265.82 810.99 269.93 816.33 273.77 821.23 C 277.61 826.13 282.69 830.58 286.30 835.70 C 289.92 840.81 294.95 845.51 298.00 851.00
C 296.24 851.05 294.93 849.47 293.00 850.00
C 295.26 851.94 297.91 854.91 300.00 857.00
C 301.17 857.10 302.08 856.62 303.00 856.00
C 306.16 851.11 301.15 846.24 305.78 840.78 C 310.40 835.31 307.09 835.55 312.25 828.25 C 317.42 820.96 322.85 814.68 330.25 808.25 C 337.64 801.82 341.07 796.55 351.08 792.08 C 361.08 787.61 377.26 773.00 388.00 774.00
C 393.16 776.60 405.67 775.20 410.92 777.08 C 416.17 778.96 428.23 783.78 424.00 779.00
C 427.75 779.01 431.80 780.31 435.00 781.00
C 478.23 785.18 524.65 762.97 563.02 750.02 C 601.40 737.08 635.43 716.80 670.70 698.70 C 705.96 680.59 731.68 654.63 765.00 634.00
C 783.08 622.81 784.77 596.14 796.00 580.00
C 795.08 579.98 794.17 581.64 793.00 581.00
C 805.33 570.58 823.61 574.15 839.00 572.00
C 843.41 572.00 848.34 572.65 852.00 573.00
C 866.33 573.00 880.61 575.13 894.00 579.00
C 902.72 581.52 906.04 572.96 905.00 565.00
C 904.05 562.14 901.82 560.05 900.00 558.00
C 907.46 577.00 883.85 566.43 878.75 557.25 C 873.66 548.06 859.33 543.90 853.25 534.75 C 847.17 525.60 835.63 519.03 830.25 509.75 C 824.86 500.48 808.65 494.26 808.00 483.00
C 807.26 484.79 804.70 486.55 805.00 489.00
C 802.56 485.42 806.31 480.45 805.00 476.00
C 804.34 477.46 803.33 479.87 802.00 481.00
C 800.40 465.09 804.13 448.06 807.78 433.78 C 811.43 419.49 816.13 408.82 824.00 397.00
C 823.00 397.00 822.00 397.00 821.00 397.00
C 809.68 398.84 796.59 400.22 786.00 400.00
C 792.20 397.89 798.61 396.55 805.00 395.00
C 805.95 377.97 804.66 358.48 805.00 341.00 C 805.34 323.52 802.13 305.43 800.00 289.00 C 797.88 272.56 794.86 256.10 791.22 240.78 C 787.58 225.45 783.88 211.20 779.02 196.98 C 774.17 182.75 767.89 170.10 762.22 156.78 C 756.56 143.45 750.60 130.74 743.23 118.77 C 735.86 106.80 728.85 96.66 720.25 85.75 C 711.65 74.85 702.19 66.15 692.75 56.25 C 683.32 46.35 672.33 37.89 661.77 30.23 C 651.21 22.57 635.41 16.73 632.00 5.00
C 628.33 5.07 623.32 2.37 620.00 3.00 C 616.68 3.63 609.45 0.35 607.00 2.00
C 607.00 3.67 607.00 5.33 607.00 7.00
M 225.00 334.00 
C 184.94 286.21 159.41 227.79 142.00 169.00
C 169.64 223.73 199.05 278.32 225.00 334.00
M 113.00 331.00 
C 112.60 326.86 112.50 322.10 113.00 318.00
C 113.74 281.08 126.49 247.28 137.00 213.00
C 133.57 257.93 118.45 304.71 116.00 350.00
C 112.16 344.94 113.18 337.43 113.00 331.00
M 744.00 409.00 
C 744.49 414.07 744.61 419.97 744.00 425.00
C 743.84 433.01 742.71 441.08 742.00 449.00
C 737.60 383.61 712.75 301.46 641.00 282.00
C 658.65 322.20 657.63 368.74 662.00 413.00
C 662.32 416.31 662.60 419.66 662.00 423.00
C 660.95 438.47 656.42 467.68 636.93 469.93 C 617.44 472.17 607.59 447.19 600.00 434.00
C 591.74 427.08 583.62 422.19 578.23 411.77 C 572.84 401.35 566.72 392.58 564.22 380.78 C 561.72 368.98 557.24 354.54 558.00 342.00 C 558.76 329.46 552.73 311.50 559.00 300.00
C 546.87 308.32 537.23 321.78 536.00 336.00
C 532.01 317.18 546.55 299.74 561.00 289.00
C 564.75 285.25 564.75 282.88 568.75 278.75 C 572.75 274.63 578.57 275.67 584.00 275.00
C 622.35 259.21 669.38 271.41 698.25 300.75 C 727.12 330.09 744.00 367.74 744.00 409.00
M 394.00 337.00 
C 392.00 336.93 388.13 336.23 387.00 338.00
C 384.75 360.60 396.93 382.13 399.99 404.01 C 403.05 425.89 405.92 454.95 407.00 477.00 C 408.08 499.05 407.29 528.60 400.08 547.08 C 392.86 565.55 378.95 585.89 357.78 583.22 C 336.61 580.55 332.19 553.46 327.02 534.98 C 321.85 516.49 317.08 489.80 313.07 468.93 C 309.07 448.06 307.50 418.07 306.00 396.00
C 302.72 407.60 291.65 417.01 290.07 430.07 C 288.50 443.14 279.38 456.24 280.01 470.01 C 280.64 483.78 279.73 501.32 283.33 514.67 C 286.92 528.02 288.83 539.44 298.00 550.00
C 292.39 553.29 286.79 549.14 282.00 547.00
C 291.18 561.67 307.12 572.45 323.00 578.00
C 283.33 573.40 257.07 543.34 250.01 502.99 C 242.95 462.65 255.82 416.98 276.77 382.77 C 297.72 348.56 324.16 328.38 363.01 319.01 C 401.86 309.64 442.33 332.10 457.00 370.00
C 437.59 356.33 417.65 341.17 394.00 337.00
M 584.00 558.00 
C 580.85 563.53 580.42 568.80 572.98 569.98 C 565.53 571.15 558.59 571.53 551.93 569.07 C 545.26 566.62 541.35 566.26 535.31 562.69 C 529.26 559.13 526.86 557.72 520.75 553.25 C 514.65 548.77 516.90 542.29 519.00 537.00
C 522.50 528.20 523.94 519.92 534.02 517.02 C 544.11 514.13 547.91 507.31 557.68 505.68 C 567.44 504.05 577.38 499.57 587.00 500.00 C 596.62 500.43 608.56 502.39 608.99 513.01 C 609.43 523.62 600.27 528.03 598.08 537.08 C 595.88 546.12 588.35 550.35 584.00 558.00
M 601.00 633.00 
C 603.06 638.23 593.73 645.26 590.75 649.75 C 587.77 654.24 580.97 658.21 576.75 662.75 C 572.53 667.29 566.96 670.18 561.77 674.77 C 556.58 679.36 551.22 680.77 544.31 684.31 C 537.40 687.84 530.79 687.57 522.00 689.00 C 513.21 690.43 508.55 684.56 503.00 680.00
C 496.36 677.98 489.23 674.36 487.00 667.00
C 507.79 662.00 530.64 667.31 551.00 659.00
C 556.02 656.20 559.84 650.22 564.75 646.75 C 569.66 643.28 575.69 639.31 580.00 635.00
C 588.93 624.55 589.97 613.58 590.00 600.00
C 590.53 613.43 601.64 629.03 614.08 619.08 C 626.53 609.13 630.59 602.32 645.00 598.00
C 636.57 614.35 621.37 633.56 601.00 633.00 Z"/>
</g>
<g fill="#91CAD0" fill-opacity="0.98" stroke="None">
<path d="
M 632.00 5.00 
C 635.41 16.73 651.21 22.57 661.77 30.23 C 672.33 37.89 683.32 46.35 692.75 56.25 C 702.19 66.15 711.65 74.85 720.25 85.75 C 728.85 96.66 735.86 106.80 743.23 118.77 C 750.60 130.74 756.56 143.45 762.22 156.78 C 767.89 170.10 774.17 182.75 779.02 196.98 C 783.88 211.20 787.58 225.45 791.22 240.78 C 794.86 256.10 797.88 272.56 800.00 289.00 C 802.13 305.43 805.34 323.52 805.00 341.00 C 804.66 358.48 805.95 377.97 805.00 395.00
C 809.32 394.04 813.52 393.58 818.00 393.00
C 838.05 357.89 837.99 308.87 831.78 270.22 C 825.57 231.57 814.17 193.34 797.31 159.69 C 780.44 126.05 767.02 98.80 741.00 72.00
C 774.16 114.85 791.85 157.69 807.32 209.68 C 822.79 261.66 835.50 331.52 813.00 385.00
C 817.93 347.17 818.68 295.60 810.67 258.33 C 802.67 221.05 793.33 183.28 779.07 149.93 C 764.82 116.57 751.32 89.00 727.25 62.75 C 703.17 36.50 673.07 19.75 641.00 9.00
C 664.79 10.61 686.67 27.93 707.00 41.00
C 686.21 23.84 659.61 4.45 632.00 5.00 Z"/>
</g>
<g fill="#91CAD0" fill-opacity="0.98" stroke="None">
<path d="
M 608.00 16.00 
C 608.00 12.89 607.26 9.45 607.00 7.00
C 607.00 10.09 607.77 13.58 608.00 16.00 Z"/>
</g>
<g fill="#000002" fill-opacity="1.00" stroke="None">
<path d="
M 741.00 72.00 
C 730.56 61.24 718.46 48.25 707.00 41.00
C 686.67 27.93 664.79 10.61 641.00 9.00
C 673.07 19.75 703.17 36.50 727.25 62.75 C 751.32 89.00 764.82 116.57 779.07 149.93 C 793.33 183.28 802.67 221.05 810.67 258.33 C 818.68 295.60 817.93 347.17 813.00 385.00
C 835.50 331.52 822.79 261.66 807.32 209.68 C 791.85 157.69 774.16 114.85 741.00 72.00 Z"/>
</g>
<g fill="#000002" fill-opacity="0.99" stroke="None">
<path d="
M 45.00 328.00 
C 41.25 370.67 51.28 413.00 70.00 450.00
C 68.67 450.00 67.33 450.00 66.00 450.00
C 41.47 463.18 17.43 484.34 1.00 508.00
C 11.70 507.58 16.23 522.01 23.75 529.25 C 31.28 536.48 37.82 545.98 45.75 553.25 C 53.68 560.52 61.09 569.10 69.00 576.00
C 47.83 590.06 26.75 606.19 4.00 617.00
C 7.06 618.66 11.69 620.04 15.00 621.00
C 32.81 626.19 52.46 607.36 66.25 597.25 C 80.05 587.15 93.14 573.00 104.23 558.23 C 115.32 543.46 126.55 523.62 126.00 504.00
C 125.93 501.65 126.43 499.69 125.00 498.00
C 127.53 502.56 121.25 511.50 120.23 516.23 C 119.21 520.96 114.83 526.57 111.75 530.75 C 108.67 534.94 105.67 540.64 101.25 544.25 C 96.82 547.85 94.04 552.10 90.25 556.25 C 86.46 560.39 81.89 564.77 77.00 567.00
C 72.33 569.13 70.18 563.54 65.75 560.25 C 61.32 556.96 57.99 552.69 54.00 549.00
C 48.43 544.94 44.78 542.48 39.75 537.25 C 34.72 532.02 31.49 529.75 25.75 524.25 C 20.02 518.74 19.22 518.25 12.25 511.75 C 5.28 505.25 15.75 502.43 20.00 499.00
C 21.00 498.19 22.58 492.35 25.25 490.25 C 27.92 488.15 31.38 484.24 34.00 482.00
C 37.65 478.35 41.10 474.33 45.00 471.00
C 51.76 465.23 58.96 458.59 67.00 455.00
C 68.67 454.25 70.86 453.25 73.00 453.00
C 83.77 472.21 104.32 485.42 125.00 490.00
C 88.60 476.37 73.91 446.94 65.02 409.98 C 56.14 373.02 57.01 323.07 66.33 285.33 C 75.65 247.58 84.12 212.73 96.93 175.93 C 109.74 139.12 118.80 99.06 120.00 59.00
C 125.06 75.20 130.74 92.29 142.00 106.00
C 151.64 120.94 164.32 134.33 176.00 148.00
C 178.99 150.99 182.27 153.81 185.00 157.00
C 230.64 203.77 280.72 247.83 339.00 275.00
C 318.07 257.63 293.94 241.24 275.00 222.00
C 298.55 202.09 325.31 186.82 354.00 177.00
C 357.01 175.97 360.00 175.03 363.00 174.00
C 364.98 173.32 370.71 169.58 368.00 171.00
C 331.69 171.80 297.39 193.33 274.00 222.00
C 226.54 184.36 178.81 142.14 143.00 93.00
C 130.77 76.22 125.48 59.40 122.00 39.00
C 121.72 37.75 122.60 35.53 121.00 35.00
C 119.49 39.51 120.30 47.49 118.00 39.00
C 116.28 89.90 94.49 134.06 79.32 181.32 C 64.16 228.59 49.42 277.72 45.00 328.00 Z"/>
</g>
<g fill="#91CAD0" fill-opacity="0.90" stroke="None">
<path d="
M 143.00 93.00 
C 141.39 83.47 144.07 71.25 137.77 62.23 C 131.47 53.21 128.49 46.48 122.00 39.00
C 125.48 59.40 130.77 76.22 143.00 93.00 Z"/>
</g>
<g fill="#91CAD0" fill-opacity="1.00" stroke="None">
<path d="
M 67.00 455.00 
C 72.19 455.04 75.05 464.07 79.75 467.25 C 84.45 470.42 88.02 475.85 91.75 480.25 C 95.49 484.64 103.36 484.89 106.75 490.25 C 110.13 495.62 121.88 494.32 125.00 498.00
C 126.43 499.69 125.93 501.65 126.00 504.00
C 128.19 502.30 126.44 498.52 127.00 496.00
C 137.13 496.87 142.37 483.76 138.92 476.08 C 135.48 468.39 130.74 462.99 124.92 457.08 C 119.10 451.18 114.23 446.54 108.25 440.75 C 102.27 434.96 97.76 429.09 94.78 421.22 C 91.79 413.36 88.59 405.44 85.98 397.02 C 83.36 388.61 80.08 379.13 78.93 370.07 C 77.78 361.01 76.24 350.04 79.02 341.02 C 81.81 332.01 82.54 323.07 85.22 314.22 C 87.91 305.38 89.29 296.76 92.02 288.02 C 94.75 279.29 98.55 271.37 99.01 262.01 C 99.47 252.64 103.55 243.72 106.01 235.01 C 108.46 226.29 110.04 217.46 113.02 209.02 C 116.01 200.59 118.64 192.28 120.67 183.67 C 122.70 175.07 125.20 165.69 127.22 157.22 C 129.25 148.76 133.93 140.15 134.67 131.67 C 135.42 123.19 142.41 113.65 142.00 106.00
C 130.74 92.29 125.06 75.20 120.00 59.00
C 118.80 99.06 109.74 139.12 96.93 175.93 C 84.12 212.73 75.65 247.58 66.33 285.33 C 57.01 323.07 56.14 373.02 65.02 409.98 C 73.91 446.94 88.60 476.37 125.00 490.00
C 104.32 485.42 83.77 472.21 73.00 453.00
C 70.86 453.25 68.67 454.25 67.00 455.00 Z"/>
</g>
<g fill="#91CAD0" fill-opacity="1.00" stroke="None">
<path d="
M 553.00 204.00 
C 556.96 213.17 560.24 225.11 561.00 234.00
C 531.80 182.47 500.44 131.57 461.00 86.00
C 460.22 85.29 458.89 84.68 458.00 84.00
C 454.89 81.65 452.36 78.04 450.00 76.00
C 449.03 75.49 447.90 75.40 447.00 75.00
C 438.41 75.31 446.62 92.22 450.25 96.75 C 453.87 101.28 458.52 110.79 462.75 116.25 C 466.97 121.71 471.57 129.14 475.75 135.25 C 479.92 141.37 484.29 149.29 488.25 155.75 C 492.21 162.22 496.82 168.75 500.70 175.30 C 504.57 181.85 509.97 187.42 514.23 193.77 C 518.49 200.12 522.31 207.28 526.23 213.77 C 530.15 220.26 534.39 227.88 539.75 233.25 C 545.10 238.63 549.45 248.12 558.92 245.92 C 568.40 243.73 566.46 231.95 563.98 225.02 C 561.49 218.10 556.74 210.43 553.00 204.00 Z"/>
</g>
<g fill="#F7FDFD" fill-opacity="0.85" stroke="None">
<path d="
M 458.00 84.00 
C 455.19 81.00 454.05 78.11 450.00 76.00
C 452.36 78.04 454.89 81.65 458.00 84.00 Z"/>
</g>
<g fill="#000002" fill-opacity="0.99" stroke="None">
<path d="
M 461.00 86.00 
C 500.44 131.57 531.80 182.47 561.00 234.00
C 560.24 225.11 556.96 213.17 553.00 204.00
C 551.16 199.75 549.11 194.99 547.00 191.00
C 537.20 172.45 521.63 149.02 507.75 133.25 C 493.87 117.48 478.18 95.43 461.00 86.00 Z"/>
</g>
<g fill="#000002" fill-opacity="0.98" stroke="None">
<path d="
M 422.00 192.00 
C 420.55 196.34 419.48 199.99 417.00 204.00
C 417.00 204.00 417.24 204.80 417.00 205.00
C 431.59 190.53 429.59 170.29 435.07 151.07 C 440.55 131.86 437.42 105.06 434.00 86.00
C 434.00 104.22 433.88 124.02 430.00 141.00 C 426.12 157.98 429.79 176.76 422.00 192.00 Z"/>
</g>
<g fill="#91CAD0" fill-opacity="0.98" stroke="None">
<path d="
M 185.00 157.00 
C 182.27 153.81 178.99 150.99 176.00 148.00
C 178.73 151.19 182.01 154.01 185.00 157.00 Z"/>
</g>
<g fill="#000002" fill-opacity="1.00" stroke="None">
<path d="
M 225.00 334.00 
C 199.05 278.32 169.64 223.73 142.00 169.00
C 159.41 227.79 184.94 286.21 225.00 334.00 Z"/>
</g>
<g fill="#F7FDFD" fill-opacity="0.99" stroke="None">
<path d="
M 368.00 171.00 
C 370.71 169.58 364.98 173.32 363.00 174.00
C 366.57 174.42 371.92 179.91 375.25 181.75 C 378.57 183.59 385.18 186.65 387.00 188.00
C 382.87 182.81 376.95 173.83 371.00 171.00
C 369.19 170.53 369.25 170.91 368.00 171.00 Z"/>
</g>
<g fill="#000002" fill-opacity="1.00" stroke="None">
<path d="
M 387.00 188.00 
C 405.21 210.84 423.14 234.91 448.00 252.00
C 439.94 234.25 423.34 221.28 411.00 206.00
C 398.11 196.26 386.66 175.07 371.00 171.00
C 376.95 173.83 382.87 182.81 387.00 188.00 Z"/>
</g>
<g fill="#91CAD0" fill-opacity="1.00" stroke="None">
<path d="
M 354.00 177.00 
C 360.10 183.85 365.90 192.20 372.25 198.75 C 378.60 205.30 385.72 211.47 392.25 217.75 C 398.78 224.03 404.62 231.53 410.75 238.25 C 416.88 244.97 422.73 252.73 430.25 257.75 C 437.77 262.78 444.14 274.69 454.92 271.92 C 465.71 269.16 458.85 252.68 453.75 246.25 C 448.66 239.81 440.77 232.55 434.25 226.75 C 427.72 220.96 420.79 214.23 414.00 208.00
C 413.23 207.29 411.89 206.67 411.00 206.00
C 423.34 221.28 439.94 234.25 448.00 252.00
C 423.14 234.91 405.21 210.84 387.00 188.00
C 385.18 186.65 378.57 183.59 375.25 181.75 C 371.92 179.91 366.57 174.42 363.00 174.00
C 360.00 175.03 357.01 175.97 354.00 177.00 Z"/>
</g>
<g fill="#F7FDFD" fill-opacity="0.43" stroke="None">
<path d="
M 417.00 204.00 
C 419.48 199.99 420.55 196.34 422.00 192.00
C 420.63 194.68 415.16 201.20 417.00 204.00 Z"/>
</g>
<g fill="#000002" fill-opacity="1.00" stroke="None">
<path d="
M 113.00 318.00 
C 112.91 322.33 113.00 326.67 113.00 331.00
C 113.18 337.43 112.16 344.94 116.00 350.00
C 118.45 304.71 133.57 257.93 137.00 213.00
C 126.49 247.28 113.74 281.08 113.00 318.00 Z"/>
</g>
<g fill="#000002" fill-opacity="1.00" stroke="None">
<path d="
M 584.00 275.00 
C 575.89 278.34 568.12 283.38 561.00 289.00
C 546.55 299.74 532.01 317.18 536.00 336.00
C 537.23 321.78 546.87 308.32 559.00 300.00
C 566.43 294.91 574.07 288.47 583.00 286.00
C 576.23 335.36 576.70 389.72 600.00 434.00
C 607.59 447.19 617.44 472.17 636.93 469.93 C 656.42 467.68 660.95 438.47 662.00 423.00
C 662.22 419.70 662.00 416.31 662.00 413.00
C 657.63 368.74 658.65 322.20 641.00 282.00
C 712.75 301.46 737.60 383.61 742.00 449.00
C 742.71 441.08 743.84 433.01 744.00 425.00
C 744.11 419.67 744.00 414.33 744.00 409.00
C 744.00 367.74 727.12 330.09 698.25 300.75 C 669.38 271.41 622.35 259.21 584.00 275.00 Z"/>
</g>
<g fill="#91CAD0" fill-opacity="1.00" stroke="None">
<path d="
M 561.00 289.00 
C 568.12 283.38 575.89 278.34 584.00 275.00
C 578.57 275.67 572.75 274.63 568.75 278.75 C 564.75 282.88 564.75 285.25 561.00 289.00 Z"/>
</g>
<g fill="#91CAD0" fill-opacity="1.00" stroke="None">
<path d="
M 559.00 300.00 
C 552.73 311.50 558.76 329.46 558.00 342.00 C 557.24 354.54 561.72 368.98 564.22 380.78 C 566.72 392.58 572.84 401.35 578.23 411.77 C 583.62 422.19 591.74 427.08 600.00 434.00
C 576.70 389.72 576.23 335.36 583.00 286.00
C 574.07 288.47 566.43 294.91 559.00 300.00 Z"/>
</g>
<g fill="#000002" fill-opacity="1.00" stroke="None">
<path d="
M 282.00 547.00 
C 249.32 494.76 269.64 422.61 306.00 378.00
C 306.00 384.00 306.00 390.00 306.00 396.00
C 307.50 418.07 309.07 448.06 313.07 468.93 C 317.08 489.80 321.85 516.49 327.02 534.98 C 332.19 553.46 336.61 580.55 357.78 583.22 C 378.95 585.89 392.86 565.55 400.08 547.08 C 407.29 528.60 408.08 499.05 407.00 477.00 C 405.92 454.95 403.05 425.89 399.99 404.01 C 396.93 382.13 384.75 360.60 387.00 338.00
C 387.35 334.53 390.53 336.44 394.00 337.00
C 417.65 341.17 437.59 356.33 457.00 370.00
C 442.33 332.10 401.86 309.64 363.01 319.01 C 324.16 328.38 297.72 348.56 276.77 382.77 C 255.82 416.98 242.95 462.65 250.01 502.99 C 257.07 543.34 283.33 573.40 323.00 578.00
C 307.12 572.45 291.18 561.67 282.00 547.00 Z"/>
</g>
<g fill="#91CAD0" fill-opacity="1.00" stroke="None">
<path d="
M 113.00 331.00 
C 113.00 326.67 112.91 322.33 113.00 318.00
C 112.50 322.10 112.60 326.86 113.00 331.00 Z"/>
</g>
<g fill="#91CAD0" fill-opacity="0.89" stroke="None">
<path d="
M 66.00 450.00 
C 67.33 450.00 68.67 450.00 70.00 450.00
C 51.28 413.00 41.25 370.67 45.00 328.00
C 42.43 336.03 39.59 345.01 39.00 354.00 C 38.41 362.99 39.27 373.33 40.67 381.33 C 42.07 389.33 44.51 399.80 47.07 406.93 C 49.64 414.05 52.09 424.06 55.23 429.77 C 58.37 435.48 59.88 449.02 66.00 450.00 Z"/>
</g>
<g fill="#91CAD0" fill-opacity="1.00" stroke="None">
<path d="
M 387.00 338.00 
C 388.13 336.23 392.00 336.93 394.00 337.00
C 390.53 336.44 387.35 334.53 387.00 338.00 Z"/>
</g>
<g fill="#91CAD0" fill-opacity="1.00" stroke="None">
<path d="
M 282.00 547.00 
C 286.79 549.14 292.39 553.29 298.00 550.00
C 288.83 539.44 286.92 528.02 283.33 514.67 C 279.73 501.32 280.64 483.78 280.01 470.01 C 279.38 456.24 288.50 443.14 290.07 430.07 C 291.65 417.01 302.72 407.60 306.00 396.00
C 306.00 390.00 306.00 384.00 306.00 378.00
C 269.64 422.61 249.32 494.76 282.00 547.00 Z"/>
</g>
<g fill="#F7FDFD" fill-opacity="0.73" stroke="None">
<path d="
M 826.00 392.00 
C 828.13 391.86 830.91 391.63 833.00 392.00
C 833.00 389.33 833.00 386.67 833.00 384.00
C 828.83 380.62 821.56 389.22 826.00 392.00 Z"/>
</g>
<g fill="#000002" fill-opacity="0.99" stroke="None">
<path d="
M 818.00 393.00 
C 813.52 393.58 809.32 394.04 805.00 395.00
C 798.61 396.55 792.20 397.89 786.00 400.00
C 796.59 400.22 809.68 398.84 821.00 397.00
C 824.38 396.45 833.46 392.93 837.00 394.00
C 836.00 393.27 834.43 392.25 833.00 392.00
C 830.91 391.63 828.13 391.86 826.00 392.00
C 823.16 392.18 820.79 392.64 818.00 393.00 Z"/>
</g>
<g fill="#91CAD0" fill-opacity="1.00" stroke="None">
<path d="
M 821.00 397.00 
C 822.00 397.00 823.00 397.00 824.00 397.00
C 816.13 408.82 811.43 419.49 807.78 433.78 C 804.13 448.06 800.40 465.09 802.00 481.00
C 803.33 479.87 804.34 477.46 805.00 476.00
C 807.31 470.90 808.57 464.52 809.78 458.78 C 810.99 453.03 812.77 446.24 814.93 440.93 C 817.08 435.61 819.39 430.43 821.31 425.31 C 823.22 420.18 827.89 415.36 829.75 410.75 C 831.61 406.15 838.49 401.00 839.00 397.00
C 838.86 394.24 838.63 395.19 837.00 394.00
C 833.46 392.93 824.38 396.45 821.00 397.00 Z"/>
</g>
<g fill="#000002" fill-opacity="0.98" stroke="None">
<path d="
M 805.00 476.00 
C 806.31 480.45 802.56 485.42 805.00 489.00
C 804.70 486.55 807.26 484.79 808.00 483.00
C 809.89 478.41 811.49 472.84 813.00 468.00
C 814.63 462.78 815.95 457.41 817.00 452.00
C 830.03 457.81 837.38 471.32 846.00 482.00
C 857.50 492.53 863.79 507.92 872.30 520.70 C 880.82 533.47 889.59 546.29 900.00 558.00
C 901.82 560.05 904.05 562.14 905.00 565.00
C 892.67 520.92 862.58 471.54 819.00 449.00
C 818.87 439.73 827.60 431.33 828.69 422.69 C 829.79 414.06 839.44 405.37 839.00 397.00
C 838.49 401.00 831.61 406.15 829.75 410.75 C 827.89 415.36 823.22 420.18 821.31 425.31 C 819.39 430.43 817.08 435.61 814.93 440.93 C 812.77 446.24 810.99 453.03 809.78 458.78 C 808.57 464.52 807.31 470.90 805.00 476.00 Z"/>
</g>
<g fill="#91CAD0" fill-opacity="1.00" stroke="None">
<path d="
M 744.00 425.00 
C 744.61 419.97 744.49 414.07 744.00 409.00
C 744.00 414.33 744.11 419.67 744.00 425.00 Z"/>
</g>
<g fill="#91CAD0" fill-opacity="1.00" stroke="None">
<path d="
M 662.00 423.00 
C 662.60 419.66 662.32 416.31 662.00 413.00
C 662.00 416.31 662.22 419.70 662.00 423.00 Z"/>
</g>
<g fill="#F7FDFD" fill-opacity="0.97" stroke="None">
<path d="
M 813.00 468.00 
C 823.76 458.72 838.81 475.42 846.00 482.00
C 837.38 471.32 830.03 457.81 817.00 452.00
C 815.95 457.41 814.63 462.78 813.00 468.00 Z"/>
</g>
<g fill="#F7FDFD" fill-opacity="1.00" stroke="None">
<path d="
M 45.00 471.00 
C 41.35 474.65 37.90 478.67 34.00 482.00
C 31.38 484.24 27.92 488.15 25.25 490.25 C 22.58 492.35 21.00 498.19 20.00 499.00
C 31.37 500.11 40.42 511.14 51.23 515.77 C 62.04 520.40 70.79 526.56 81.23 533.77 C 91.67 540.98 92.48 561.13 75.00 560.00
C 74.07 562.02 77.26 565.75 77.00 567.00
C 81.89 564.77 86.46 560.39 90.25 556.25 C 94.04 552.10 96.82 547.85 101.25 544.25 C 105.67 540.64 108.67 534.94 111.75 530.75 C 114.83 526.57 119.21 520.96 120.23 516.23 C 121.25 511.50 127.53 502.56 125.00 498.00
C 121.88 494.32 110.13 495.62 106.75 490.25 C 103.36 484.89 95.49 484.64 91.75 480.25 C 88.02 475.85 84.45 470.42 79.75 467.25 C 75.05 464.07 72.19 455.04 67.00 455.00
C 58.96 458.59 51.76 465.23 45.00 471.00 Z"/>
</g>
<g fill="#91CAD0" fill-opacity="1.00" stroke="None">
<path d="
M 813.00 468.00 
C 811.49 472.84 809.89 478.41 808.00 483.00
C 808.65 494.26 824.86 500.48 830.25 509.75 C 835.63 519.03 847.17 525.60 853.25 534.75 C 859.33 543.90 873.66 548.06 878.75 557.25 C 883.85 566.43 907.46 577.00 900.00 558.00
C 889.59 546.29 880.82 533.47 872.30 520.70 C 863.79 507.92 857.50 492.53 846.00 482.00
C 838.81 475.42 823.76 458.72 813.00 468.00 Z"/>
</g>
<g fill="#91CAD0" fill-opacity="1.00" stroke="None">
<path d="
M 34.00 482.00 
C 37.90 478.67 41.35 474.65 45.00 471.00
C 41.10 474.33 37.65 478.35 34.00 482.00 Z"/>
</g>
<g fill="#91CAD0" fill-opacity="0.99" stroke="None">
<path d="
M 54.00 549.00 
C 60.25 553.55 67.08 559.49 75.00 560.00
C 92.48 561.13 91.67 540.98 81.23 533.77 C 70.79 526.56 62.04 520.40 51.23 515.77 C 40.42 511.14 31.37 500.11 20.00 499.00
C 15.75 502.43 5.28 505.25 12.25 511.75 C 19.22 518.25 20.02 518.74 25.75 524.25 C 31.49 529.75 34.72 532.02 39.75 537.25 C 44.78 542.48 48.43 544.94 54.00 549.00 Z"/>
</g>
<g fill="#000002" fill-opacity="1.00" stroke="None">
<path d="
M 519.00 537.00 
C 520.37 545.39 530.77 544.69 536.25 549.75 C 541.72 554.82 551.57 555.67 558.68 558.32 C 565.78 560.97 576.82 562.54 584.00 558.00
C 588.35 550.35 595.88 546.12 598.08 537.08 C 600.27 528.03 609.43 523.62 608.99 513.01 C 608.56 502.39 596.62 500.43 587.00 500.00 C 577.38 499.57 567.44 504.05 557.68 505.68 C 547.91 507.31 544.11 514.13 534.02 517.02 C 523.94 519.92 522.50 528.20 519.00 537.00 Z"/>
</g>
<g fill="#91CAD0" fill-opacity="1.00" stroke="None">
<path d="
M 584.00 558.00 
C 576.82 562.54 565.78 560.97 558.68 558.32 C 551.57 555.67 541.72 554.82 536.25 549.75 C 530.77 544.69 520.37 545.39 519.00 537.00
C 516.90 542.29 514.65 548.77 520.75 553.25 C 526.86 557.72 529.26 559.13 535.31 562.69 C 541.35 566.26 545.26 566.62 551.93 569.07 C 558.59 571.53 565.53 571.15 572.98 569.98 C 580.42 568.80 580.85 563.53 584.00 558.00 Z"/>
</g>
<g fill="#000002" fill-opacity="0.01" stroke="None">
<path d="
M 77.00 567.00 
C 77.26 565.75 74.07 562.02 75.00 560.00
C 67.08 559.49 60.25 553.55 54.00 549.00
C 57.99 552.69 61.32 556.96 65.75 560.25 C 70.18 563.54 72.33 569.13 77.00 567.00 Z"/>
</g>
<g fill="#000002" fill-opacity="0.99" stroke="None">
<path d="
M 796.00 580.00 
C 828.22 580.71 862.64 577.19 894.00 579.00
C 880.61 575.13 866.33 573.00 852.00 573.00
C 847.59 573.00 842.66 572.35 839.00 572.00
C 823.61 574.15 805.33 570.58 793.00 581.00
C 794.17 581.64 795.08 579.98 796.00 580.00 Z"/>
</g>
<g fill="#91CAD0" fill-opacity="1.00" stroke="None">
<path d="
M 852.00 573.00 
C 848.34 572.65 843.41 572.00 839.00 572.00
C 842.66 572.35 847.59 573.00 852.00 573.00 Z"/>
</g>
<g fill="#000002" fill-opacity="1.00" stroke="None">
<path d="
M 20.00 631.00 
C 34.46 636.75 52.95 634.52 69.00 636.00 C 85.05 637.48 103.54 634.36 119.00 632.00
C 126.45 630.86 133.59 629.35 141.00 628.00
C 183.51 618.90 226.17 608.50 267.00 595.00
C 253.15 592.26 235.86 594.37 222.00 596.00 C 208.14 597.63 194.71 599.09 181.67 602.67 C 168.63 606.26 156.28 609.29 143.22 612.22 C 130.16 615.15 118.75 619.73 105.22 621.22 C 91.69 622.71 77.11 627.89 63.00 627.00 C 48.89 626.11 33.76 632.81 20.00 631.00 Z"/>
</g>
<g fill="#000002" fill-opacity="1.00" stroke="None">
<path d="
M 580.00 635.00 
C 571.89 644.49 562.38 654.42 551.00 659.00
C 530.64 667.31 507.79 662.00 487.00 667.00
C 489.23 674.36 496.36 677.98 503.00 680.00
C 540.74 691.45 581.23 663.12 593.00 628.00
C 595.51 630.06 598.02 631.80 601.00 633.00
C 621.37 633.56 636.57 614.35 645.00 598.00
C 630.59 602.32 626.53 609.13 614.08 619.08 C 601.64 629.03 590.53 613.43 590.00 600.00
C 589.97 613.58 588.93 624.55 580.00 635.00 Z"/>
</g>
<g fill="#91CAD0" fill-opacity="0.99" stroke="None">
<path d="
M 119.00 632.00 
C 111.77 647.95 105.91 666.00 102.00 682.00
C 109.79 665.34 119.20 648.84 128.00 633.00
C 117.08 668.86 100.26 702.66 85.00 737.00
C 84.52 739.08 82.75 747.01 83.00 750.00
C 84.29 752.38 83.76 752.95 86.00 755.00
C 85.78 754.87 90.13 755.78 91.00 756.00
C 89.15 754.28 97.30 749.37 98.70 745.70 C 100.09 742.02 103.65 737.67 106.08 733.08 C 108.50 728.48 109.38 725.13 112.23 719.23 C 115.07 713.33 114.97 713.81 118.69 705.70 C 122.42 697.58 127.29 685.64 130.23 677.23 C 133.17 668.81 133.92 669.63 136.01 663.01 C 138.09 656.39 137.37 652.50 140.00 647.00 C 142.63 641.50 137.80 632.43 141.00 628.00
C 133.59 629.35 126.45 630.86 119.00 632.00 Z"/>
</g>
<g fill="#91CAD0" fill-opacity="1.00" stroke="None">
<path d="
M 503.00 680.00 
C 508.55 684.56 513.21 690.43 522.00 689.00 C 530.79 687.57 537.40 687.84 544.31 684.31 C 551.22 680.77 556.58 679.36 561.77 674.77 C 566.96 670.18 572.53 667.29 576.75 662.75 C 580.97 658.21 587.77 654.24 590.75 649.75 C 593.73 645.26 603.06 638.23 601.00 633.00
C 598.02 631.80 595.51 630.06 593.00 628.00
C 581.23 663.12 540.74 691.45 503.00 680.00 Z"/>
</g>
<g fill="#000002" fill-opacity="1.00" stroke="None">
<path d="
M 102.00 682.00 
C 97.71 693.80 90.40 704.27 85.93 715.93 C 81.45 727.58 71.48 739.01 74.00 752.00
C 76.67 751.47 79.69 748.21 81.00 746.00
C 82.54 743.41 83.56 739.82 85.00 737.00
C 100.26 702.66 117.08 668.86 128.00 633.00
C 119.20 648.84 109.79 665.34 102.00 682.00 Z"/>
</g>
<g fill="#000002" fill-opacity="0.98" stroke="None">
<path d="
M 435.00 781.00 
C 437.92 781.63 441.40 782.00 445.00 782.00
C 448.00 782.00 451.00 782.00 454.00 782.00
C 515.10 782.00 576.79 751.34 630.31 728.31 C 683.82 705.27 721.47 671.94 765.00 634.00
C 731.68 654.63 705.96 680.59 670.70 698.70 C 635.43 716.80 601.40 737.08 563.02 750.02 C 524.65 762.97 478.23 785.18 435.00 781.00 Z"/>
</g>
<g fill="#91CAD0" fill-opacity="1.00" stroke="None">
<path d="
M 551.00 659.00 
C 562.38 654.42 571.89 644.49 580.00 635.00
C 575.69 639.31 569.66 643.28 564.75 646.75 C 559.84 650.22 556.02 656.20 551.00 659.00 Z"/>
</g>
<g fill="#F7FDFD" fill-opacity="0.91" stroke="None">
<path d="
M 81.00 746.00 
C 81.04 748.68 82.04 748.23 83.00 750.00
C 82.75 747.01 84.52 739.08 85.00 737.00
C 83.56 739.82 82.54 743.41 81.00 746.00 Z"/>
</g>
<g fill="#000002" fill-opacity="1.00" stroke="None">
<path d="
M 86.00 755.00 
C 93.46 761.83 102.26 762.53 111.98 764.02 C 121.69 765.51 131.88 766.53 142.00 768.00 C 152.12 769.47 164.93 766.26 175.00 769.00 C 185.07 771.74 198.48 764.40 208.00 768.00
C 213.93 770.24 215.43 785.57 221.25 790.75 C 227.08 795.93 231.55 804.84 237.25 810.75 C 242.94 816.67 249.06 823.45 255.00 829.00
C 271.47 842.33 287.63 856.81 307.00 865.00
C 304.81 862.44 302.42 859.42 300.00 857.00
C 297.91 854.91 295.26 851.94 293.00 850.00
C 264.79 825.89 233.97 798.89 213.00 768.00
C 215.91 768.59 218.06 766.41 221.00 767.00
C 239.74 766.24 257.57 761.89 276.00 760.00
C 263.27 758.56 249.45 756.00 236.00 756.00
C 232.54 756.33 228.39 756.33 225.00 756.00
C 202.75 756.00 178.00 758.78 156.00 758.00 C 134.00 757.22 112.53 761.35 91.00 756.00
C 90.13 755.78 85.78 754.87 86.00 755.00 Z"/>
</g>
<g fill="#91CAD0" fill-opacity="1.00" stroke="None">
<path d="
M 236.00 756.00 
C 232.33 756.00 228.67 756.00 225.00 756.00
C 228.39 756.33 232.54 756.33 236.00 756.00 Z"/>
</g>
<g fill="#91CAD0" fill-opacity="1.00" stroke="None">
<path d="
M 293.00 850.00 
C 294.93 849.47 296.24 851.05 298.00 851.00
C 294.95 845.51 289.92 840.81 286.30 835.70 C 282.69 830.58 277.61 826.13 273.77 821.23 C 269.93 816.33 265.82 810.99 261.30 806.70 C 256.79 802.40 253.22 796.17 248.75 792.25 C 244.28 788.33 240.23 781.43 235.08 778.92 C 229.94 776.40 225.91 768.52 221.00 767.00
C 218.06 766.41 215.91 768.59 213.00 768.00
C 233.97 798.89 264.79 825.89 293.00 850.00 Z"/>
</g>
<g fill="#91CAD0" fill-opacity="0.85" stroke="None">
<path d="
M 255.00 829.00 
C 249.06 823.45 242.94 816.67 237.25 810.75 C 231.55 804.84 227.08 795.93 221.25 790.75 C 215.43 785.57 213.93 770.24 208.00 768.00
C 202.40 782.32 216.20 793.29 225.25 802.75 C 234.30 812.21 244.59 821.57 255.00 829.00 Z"/>
</g>
<g fill="#000002" fill-opacity="0.98" stroke="None">
<path d="
M 303.00 856.00 
C 308.42 852.34 308.65 838.86 315.75 834.75 C 322.85 830.64 325.91 822.74 332.77 818.77 C 339.63 814.80 345.17 807.77 351.75 803.75 C 358.34 799.74 364.06 793.16 370.25 789.25 C 376.44 785.34 380.77 775.09 388.00 774.00
C 377.26 773.00 361.08 787.61 351.08 792.08 C 341.07 796.55 337.64 801.82 330.25 808.25 C 322.85 814.68 317.42 820.96 312.25 828.25 C 307.09 835.55 310.40 835.31 305.78 840.78 C 301.15 846.24 306.16 851.11 303.00 856.00 Z"/>
</g>
<g fill="#F7FDFD" fill-opacity="0.64" stroke="None">
<path d="
M 454.00 782.00 
C 451.00 782.00 448.00 782.00 445.00 782.00
C 447.76 782.27 451.18 782.27 454.00 782.00 Z"/>
</g>
</svg>